<?xml version="1.0" encoding="utf-8"?>
<!-- Generator: Adobe Illustrator 19.0.0, SVG Export Plug-In . SVG Version: 6.00 Build 0)  -->
<svg version="1.1" id="圖層_1" xmlns="http://www.w3.org/2000/svg" xmlns:xlink="http://www.w3.org/1999/xlink" x="0px" y="0px"
	 viewBox="45 -33.8 150 150" style="enable-background:new 45 -33.8 150 150;" xml:space="preserve">
<style type="text/css">
	.st0{enable-background:new    ;}
</style>
<g class="st0">
	<path d="M161.3,88.7c-16.6,0.6-40.2,1.9-70.9,3.7c-0.3,0-0.6,0-1,0.1c-2,0.6-3.8,1.1-5.5,1.5c-3.5,0.9-6.2,1.9-8,2.9
		c-0.5,0.3-1,0.5-1.5,0.8c-0.4,0.2-0.7,0.3-0.9,0.3c-0.6,0-1.5-1.5-2.9-4.5c-1.5-3.2-2.2-5.2-2.2-5.9c0-0.2,0.2-0.4,0.7-0.7
		c0.5-0.2,0.9-0.6,1.3-1c0.9-0.7,1.6-4.9,2-12.5c0.1-6,0.2-16.2,0.4-30.8c0-26.8-0.3-41.4-0.9-43.7c-0.4-1.8-1.3-3.3-2.8-4.5
		c-1.1-0.9-2.9-1.9-5.3-3.1l1.3-3.9c6,0.8,10.7,2.3,14.3,4.4c3.1,1.8,4.6,3.6,4.6,5.5c0,1.2-0.3,2.7-0.9,4.5c-0.6,2-1,5.6-1.2,11
		c-0.2,8.8-0.4,21.6-0.7,38.2c-0.2,15.7-0.5,26.9-0.7,33.6C92,84.6,102,84.3,110.6,84c10.5-0.4,25.6-1.1,45-2.3
		c2.4-0.1,4.4-0.2,6-0.4c0.6-15.4,0.9-33.3,0.9-53.5c0-21.4-0.3-33.7-0.9-36.8c-0.7-3.4-3.9-6-9.4-7.8l1.3-3.8
		c5.8,0.2,10.7,1.6,14.7,4c3,1.8,4.5,3.5,4.5,5.1c0,1.3-0.3,2.6-1,4c-0.7,1.7-1,4.6-1,8.8v25c0,9.6,0.1,18.3,0.3,26.1
		c0.6,17.1,0.9,30,0.9,38.7c0,5.8-2.1,8.7-6.3,8.7c-3.1,0-4.6-2.2-4.6-6.6C161.1,92.2,161.2,90.7,161.3,88.7z"/>
</g>
</svg>
