<?xml version="1.0" encoding="utf-8"?>
<!-- Generator: Adobe Illustrator 19.0.0, SVG Export Plug-In . SVG Version: 6.00 Build 0)  -->
<svg version="1.1" id="圖層_1" xmlns="http://www.w3.org/2000/svg" xmlns:xlink="http://www.w3.org/1999/xlink" x="0px" y="0px"
	 viewBox="45 -33.8 150 150" style="enable-background:new 45 -33.8 150 150;" xml:space="preserve">
<style type="text/css">
	.st0{enable-background:new    ;}
</style>
<g class="st0">
	<path d="M143.4-5.7c-10.1,0.9-29.2,3.3-57.2,7.2c-2.6,0.2-5.1,0.7-7.5,1.4c-0.9,0.3-1.7,0.4-2.4,0.4c-4.1,0-9.2-4.2-15.5-12.5
		l3.4-2.6c3.6,2.6,6.9,4.3,9.7,5.1c1.9,0.5,4.4,0.8,7.4,0.8c2.1,0,4.1-0.1,6.1-0.4c20.1-2.2,36.5-3.9,49.3-5.1c3.4-0.2,6.1-1,8-2.6
		c1-0.8,2.1-1.2,3.1-1.2c1.4,0,3.1,1,5.3,3.1c3.4,3.2,5.1,5.8,5.1,7.8c0,0.9-0.8,1.8-2.3,2.7c-2.2,1-4.4,3.1-6.7,6.3
		c-7,11.3-14.8,21.1-23.4,29.3l-4.5-2.3C129.9,21.3,137.3,8.9,143.4-5.7z M79.9,43.9c25.2-3.1,50.6-5.9,76-8.5
		c2.1-0.2,3.6-0.9,4.6-1.9c1.3-1.3,2.3-2,3-2c1.8,0,4.2,1.5,7.4,4.5c2.9,2.9,4.3,5.2,4.3,6.8c0,1.2-0.9,2.4-2.7,3.7
		c-1.5,0.9-2.5,2.5-2.9,4.9c-4.7,16.1-16.2,31.7-34.5,46.7l-4.2-2.6c18.7-19.3,29-37.3,30.9-54.1c-25.6,1.4-49.9,3.7-72.8,6.9
		c-4.5,0.7-7.5,1.3-8.9,1.7c-3.5,0.9-6.2,1.9-8,2.9c-0.5,0.3-1,0.5-1.5,0.8c-0.4,0.2-0.7,0.3-0.9,0.3c-0.6,0-1.5-1.5-2.9-4.5
		c-1.5-3.2-2.2-5.2-2.2-5.9c0-0.2,0.2-0.4,0.7-0.7c0.5-0.2,1.2-0.5,2.1-0.7c2.1-0.5,4.1-1.5,5.9-2.8c1.2-0.8,2.3-1.9,3.4-3.1
		c2.1-2.3,3.8-4.6,4.8-6.8c1.6-4.2,2.4-8.7,2.4-13.3c0-2.7-2.6-5-7.9-7l1.3-3.7C88.4,6.1,93.8,9,93.8,14.3c0,2.3-0.5,5.4-1.5,9.3
		C90.1,32.5,86,39.2,79.9,43.9z"/>
</g>
</svg>
