<?xml version="1.0" encoding="utf-8"?>
<!-- Generator: Adobe Illustrator 19.0.0, SVG Export Plug-In . SVG Version: 6.00 Build 0)  -->
<svg version="1.1" id="圖層_1" xmlns="http://www.w3.org/2000/svg" xmlns:xlink="http://www.w3.org/1999/xlink" x="0px" y="0px"
	 viewBox="45 -33.8 150 150" style="enable-background:new 45 -33.8 150 150;" xml:space="preserve">
<style type="text/css">
	.st0{enable-background:new    ;}
</style>
<g class="st0">
	<path d="M87.3-3.4c-3.1,3.9-5.6,7.1-7.5,9.7c-2.6,3.6-4.7,6.7-6.3,9.3c-1,1.5-2.3,2.3-3.9,2.3c-1.6,0-3.7-1.4-6.4-4.3
		c-2.6-2.8-4.7-6.1-6.4-9.8L58.9,1c3.2,3,5.4,4.5,6.6,4.5c1.7,0,4.8-2.6,9.4-7.8c2.5-2.9,4.6-5.5,6.4-7.7c2.1-2.7,3.7-4.1,4.5-4.1
		c1.9,0.1,4.5,0.9,7.9,2.3C96-10.6,97-9.8,97-9.2c0,0.6-0.4,1.3-1.2,1.9c-1,0.8-1.3,1.8-1.1,2.9c5.3,18.1,12.9,33.7,22.8,46.9
		c10.2,13.6,22.2,25.2,35.9,34.8c9.8,6.2,20.2,10.9,31.3,14c1.4,0.2,2.1,0.8,2.1,1.9c0,1-1.1,1.5-3.4,1.5c-3.5,0.4-6.4,0.9-8.7,1.6
		c-6.7,1.6-11,2.5-13,2.6c-1.3-0.3-5.8-3.4-13.5-9.2C118.7,67.5,98.3,36.5,87.3-3.4z"/>
</g>
</svg>
