<?xml version="1.0" encoding="utf-8"?>
<!-- Generator: Adobe Illustrator 19.0.0, SVG Export Plug-In . SVG Version: 6.00 Build 0)  -->
<svg version="1.1" id="圖層_1" xmlns="http://www.w3.org/2000/svg" xmlns:xlink="http://www.w3.org/1999/xlink" x="0px" y="0px"
	 viewBox="45 -33.8 150 150" style="enable-background:new 45 -33.8 150 150;" xml:space="preserve">
<style type="text/css">
	.st0{enable-background:new    ;}
</style>
<g class="st0">
	<path d="M133,22.8c0.9,1,1.3,2,1.3,3.1c0,0.8-0.1,1.8-0.3,3c-0.1,1.2-0.3,2.1-0.4,2.7c-2.8,12.6-4.5,25.6-5.1,38.7
		c0,4.2,0.2,7.2,0.7,8.9c0.5,1.9,1.6,3.6,3.1,5.2c2.6,2.6,8,3.9,16.3,3.9c6.7,0,11.9-0.7,15.7-2c3.1-1.1,5.7-1.6,7.6-1.6
		c4.7,0,7.1,1.9,7.1,5.6c0,1.9-1.4,3.1-4.2,3.7c-6.4,1.5-14.7,2.3-24.7,2.3c-4.2,0-8.3-0.4-12.2-1.2c-4.2-0.8-7.7-2.3-10.3-4.5
		c-3.7-3-6-6.7-6.7-11.1c-0.5-2.6-0.6-6.1-0.3-10.5c0.5-6.7,2.1-18.4,4.8-34.9c0.7-4.1,0.6-6.9-0.3-8.2c-0.7-0.9-1.7-1.7-3.1-2.6
		c-0.2,0-0.4,0.1-0.7,0.1c-1.4,0.1-2.8,0.3-4.1,0.4C112,39.3,106,52,99.1,62.1C89.3,76.7,76.9,88.8,62,98.4L59.6,95
		C73.4,84.3,85.2,70.7,95,54.1c5-8.5,9.4-18.2,13.3-29.1C99.9,26,92.5,26.8,86,27.6c-2.9,0.3-5.2,0.8-6.7,1.2
		c-1.3,0.5-2.5,0.7-3.4,0.7c-2.3,0-4.8-1.2-7.5-3.7c-2.5-2.2-4.7-5-6.6-8.5l3.1-2.4c4.6,4,9.2,6,13.7,6c4.4,0,15.2-0.8,32.2-2.4
		c2.4-8,4.4-16.2,5.9-24.7c0.4-2,0.1-3.8-1-5.6c-1.6-2.2-4.7-4-9.4-5.3l1.2-4c6.7,0.1,11.9,0.9,15.6,2.3c2.7,1.1,4,2.8,4,5.1
		c0,1.4-0.2,3-0.7,5c-2.2,9.4-4.6,18.2-7.3,26.4c15.1-1.2,25.8-2.2,32-2.9c2.7-0.3,5.4-0.9,7.9-1.8c1.9-0.8,3.4-1.2,4.7-1.2
		c4.4,0,7.8,0.8,10.1,2.3c2,1.2,2.9,2.8,2.9,4.7c0,2.4-1.8,3.6-5.4,3.6c-2.8,0-5.4-0.1-7.8-0.3c-3.5-0.2-7.3-0.3-11.3-0.3
		C148.7,22,142.3,22.3,133,22.8z"/>
</g>
</svg>
