<?xml version="1.0" encoding="utf-8"?>
<!-- Generator: Adobe Illustrator 19.0.0, SVG Export Plug-In . SVG Version: 6.00 Build 0)  -->
<svg version="1.1" id="圖層_1" xmlns="http://www.w3.org/2000/svg" xmlns:xlink="http://www.w3.org/1999/xlink" x="0px" y="0px"
	 viewBox="45 -33.8 150 150" style="enable-background:new 45 -33.8 150 150;" xml:space="preserve">
<style type="text/css">
	.st0{enable-background:new    ;}
</style>
<g class="st0">
	<path d="M167,61.4c0,6.2-0.8,10.5-2.3,13c-1.4,2.3-3.1,3.4-5.1,3.4c-1.6,0-2.9-1.5-4-4.5c-0.8-2.5-0.5-6.4,0.9-11.6
		c2.1-12.8,3.4-25.6,3.8-38.2c-12.9,1-24.9,1.9-35.7,2.9c0,9.5,0.1,18.1,0.3,25.9c0.6,17.1,0.9,30,0.9,38.7c0,5.8-2.1,8.7-6.3,8.7
		c-3.1,0-4.6-2.2-4.6-6.6c0-1.5,0.1-4,0.4-7.7c0.7-16.4,1-35.6,1-57.7v-0.1c-10.4,0.7-21.6,1.6-33.5,2.5c-0.1,3.8-0.3,7.4-0.4,10.8
		c0,2.2,0.1,4.8,0.3,7.8c0.6,4.9,0.9,11.7,0.9,20.4c0,5.8-2.1,8.7-6.3,8.7c-3.1,0-4.6-2.2-4.6-6.6c0-1.5,0.1-4,0.4-7.7
		c0.7-6.6,1-14.5,1-23.6c0-2.1,0-4-0.1-5.8c-0.2-5.1-1-8.3-2.3-9.7c-1.3-2-2.9-3.7-4.8-5.1l1.5-4c3.2,0.7,6.1,1.9,8.8,3.5
		c2.6,1.4,4.4,2.8,5.3,4.2c9.9-0.5,21.2-1.3,33.9-2.2V-2.1c-3.9,0.3-7.7,0.6-11.6,0.9c-9.5,1-17.6,2-24.3,3.1
		c-1.6,0.3-2.9,0.7-3.7,1.1c-1.3,0.5-2.5,0.7-3.6,0.7c-4.2,0-8.7-4.1-13.5-12.3l3.3-2.6c4.3,3.8,8.2,5.7,11.8,5.7
		c5.4,0,15.4-0.7,30-2c21.9-1.9,35.8-3.1,41.7-3.6c4.8-0.5,8.2-1.2,10-2.1c1.7-1,3.9-1.5,6.6-1.5c3.1,0,5.8,0.6,8.1,1.9
		c2.2,1.2,3.3,2.7,3.3,4.5c0,2.6-1.8,3.9-5.4,3.9h-10.7c-3.9,0-6.8,0-8.8,0.1c-6.6,0.2-15,0.7-25,1.3v22.9
		c9.6-0.8,19.1-1.5,28.5-2.3c2.4-0.1,5.2-1,8.1-2.7c1.3-0.7,2.3-1,3.1-1c1.1,0,2.9,1.2,5.4,3.7c2.9,2.6,4.3,4.7,4.3,6.4
		c0,0.9-0.7,1.9-2.1,3c-1.5,1.1-2.4,3.3-2.7,6.8C168.7,43.8,167.9,52.9,167,61.4z"/>
</g>
</svg>
