<?xml version="1.0" encoding="utf-8"?>
<!-- Generator: Adobe Illustrator 19.0.0, SVG Export Plug-In . SVG Version: 6.00 Build 0)  -->
<svg version="1.1" id="圖層_1" xmlns="http://www.w3.org/2000/svg" xmlns:xlink="http://www.w3.org/1999/xlink" x="0px" y="0px"
	 viewBox="45 -33.8 150 150" style="enable-background:new 45 -33.8 150 150;" xml:space="preserve">
<style type="text/css">
	.st0{enable-background:new    ;}
</style>
<g class="st0">
	<path d="M90.2,27.8c34.1-3,55.5-4.7,64.4-5.3c1.2-8,2.6-17.1,4.1-27.5C127-2.5,106.9-0.7,98.4,0.3c-2.8,0.3-5.2,0.8-7.1,1.2
		c-1.8,0.5-2.9,0.7-3.4,0.7c-2.1,0-4.5-1.2-7.2-3.7c-2.5-2.2-4.9-5.2-7-8.9l2.9-2.7c3,2.3,5.7,3.9,8.1,4.5c2,0.6,4.8,0.9,8.3,0.9
		c4.5,0,10.7-0.2,18.6-0.7c11.4-0.9,24.7-1.9,39.8-3.1c2.4-0.1,5.2-1,8.1-2.7c1.3-0.7,2.3-1,3.1-1c1.1,0,2.9,1.2,5.4,3.7
		c2.9,3.1,4.3,5.5,4.3,7.2c0,0.9-0.7,1.9-2.1,3c-1.5,1.1-2.4,3.3-2.7,6.8c-1.8,6.2-3.2,11.3-4.2,15.3c3.7,1.3,5.6,3.4,5.6,6.3
		c0,2.3-1.5,3.4-4.6,3.4c-20.4,0-45.1,1.6-74.3,4.8c-0.2,2.6-0.7,5.7-1.5,9.1C86.2,56.2,83,66.2,79,74.5
		c-6.6,12.5-13.8,21.1-21.7,25.7l-2.6-3.6c6.1-5.9,11.8-15,17-27.3c3.6-8.8,6.3-20.3,8.1-34.4c0-1,0.1-1.9,0.1-2.7
		c0-2.7-2.4-5-7.2-7l1.3-3.7C82.5,22.6,87.9,24.7,90.2,27.8z"/>
</g>
</svg>
