<?xml version="1.0" encoding="utf-8"?>
<!-- Generator: Adobe Illustrator 19.0.0, SVG Export Plug-In . SVG Version: 6.00 Build 0)  -->
<svg version="1.1" id="圖層_1" xmlns="http://www.w3.org/2000/svg" xmlns:xlink="http://www.w3.org/1999/xlink" x="0px" y="0px"
	 viewBox="45 -33.8 150 150" style="enable-background:new 45 -33.8 150 150;" xml:space="preserve">
<style type="text/css">
	.st0{enable-background:new    ;}
</style>
<g class="st0">
	<path d="M80.2,70.5c8.8-17.7,16.6-35.1,23.4-52.2c5.5-14,8.3-22.4,8.3-25c0-3.4-2.1-6.2-6.3-8.4l2.4-3.9
		c11.4,4.2,17.1,8.3,17.1,12.5c0,1.5-0.8,3.5-2.3,6.2c-1.6,3.1-3.9,7.8-6.7,13.9l-3.1,6.6c-8.8,18-18.6,37.1-29.5,57.1
		c7.5-0.2,14.8-0.4,22.1-0.7c10.5-0.4,25.6-1.1,45-2.3c5.8-0.6,9.7-1.2,11.7-1.8c1.6-0.5,3-0.8,4.2-0.8c2.7,0,5.4,0.6,8.1,1.9
		c2.9,1.6,4.3,3.3,4.3,5.1c0,2.6-2,4-5.9,4c-2.2,0-4.7-0.1-7.5-0.3c-4.1-0.2-8.6-0.4-13.5-0.4c-12,0-32.2,0.9-60.6,2.6
		c-3.5,0.4-6.3,0.8-8.5,1.3c-3.5,0.9-6.2,1.9-8,2.9c-0.5,0.3-1,0.5-1.5,0.8c-0.4,0.2-0.7,0.3-0.9,0.3c-0.6,0-1.5-1.5-2.9-4.5
		c-1.5-3.2-2.2-5.2-2.2-5.9c0-0.2,0.2-0.4,0.7-0.7c0.5-0.2,1.2-0.5,2.1-0.7c2.1-0.5,4.1-1.5,5.9-2.8C77.5,74.1,78.8,72.5,80.2,70.5z
		"/>
</g>
</svg>
