<?xml version="1.0" encoding="utf-8"?>
<!-- Generator: Adobe Illustrator 19.0.0, SVG Export Plug-In . SVG Version: 6.00 Build 0)  -->
<svg version="1.1" id="圖層_1" xmlns="http://www.w3.org/2000/svg" xmlns:xlink="http://www.w3.org/1999/xlink" x="0px" y="0px"
	 viewBox="45 -33.8 150 150" style="enable-background:new 45 -33.8 150 150;" xml:space="preserve">
<style type="text/css">
	.st0{enable-background:new    ;}
</style>
<g class="st0">
	<path d="M115.2,9.2c0.1-3.6,0.1-7.3,0.1-11c0-6.2-0.5-10.2-1.5-11.9c-1.3-2.1-3.6-3.6-6.9-4.6l1.2-4c5.4,0.3,9.8,1.5,13.2,3.5
		c2.7,1.7,4,3.4,4,5.3c0,0.9-0.2,2.3-0.6,4c-0.4,2.2-0.6,8.2-0.7,17.8c21-1.9,32.6-3.2,34.7-4c2.9-1.1,5.5-1.7,7.7-1.7
		c3.9,0,7.1,0.8,9.4,2.3c2.2,1.4,3.3,3.1,3.3,5.3c0,2.2-2,3.3-6,3.3l-14.9-0.4c-6,0-15.7,0.4-29.2,1.2l-5.1,0.4v9
		c0,5.7,0,9.3,0.1,10.8v3.1c0,3.9-2,5.9-6,5.9c-1.8,0-3.1-0.4-3.9-1.1c-6.7,0.4-12.5,2.5-17.4,6.4c-5.3,4.5-7.9,10.9-7.9,19.2
		c0,7.1,2.7,13.1,8.2,18c5.6,4.8,13.5,7.5,23.8,8c7,0,14.1-1.6,21.4-4.8c6.8-2.7,13-7.7,18.5-15l3.3,2.9c-2.3,4.3-4.8,7.8-7.5,10.5
		c-2.8,2.7-6.5,5.3-11,7.8c-7.2,3.7-16.3,5.5-27.2,5.6c-12.5-0.5-22-4-28.4-10.5c-6.3-6.4-9.5-14.1-9.5-23.1c0-4.6,0.9-9,2.8-13.3
		c1.9-4.3,4.5-8,7.8-11.2c3.6-3.1,7.6-5.4,12.2-7.1c3.4-1.2,6.9-1.9,10.6-2.3c0-0.4,0.1-0.9,0.1-1.4c0.4-5.3,0.8-10.8,1-16.6
		c-13,1.4-23.4,2.7-31.3,3.9c-1.8,0.3-3.2,0.6-4.2,1c-1.4,0.4-2.4,0.6-3,0.6c-2.6,0-5.4-1.5-8.5-4.5c-2.6-2.4-4.8-5.4-6.7-8.9
		l3.1-2.7c3.3,2.6,5.9,4.3,7.6,5.1c1.8,0.7,4.1,1.1,6.8,1.1C85.3,11.4,97.3,10.7,115.2,9.2z"/>
</g>
</svg>
