<?xml version="1.0" encoding="utf-8"?>
<!-- Generator: Adobe Illustrator 19.0.0, SVG Export Plug-In . SVG Version: 6.00 Build 0)  -->
<svg version="1.1" id="圖層_1" xmlns="http://www.w3.org/2000/svg" xmlns:xlink="http://www.w3.org/1999/xlink" x="0px" y="0px"
	 viewBox="45 -33.8 150 150" style="enable-background:new 45 -33.8 150 150;" xml:space="preserve">
<style type="text/css">
	.st0{enable-background:new    ;}
</style>
<g class="st0">
	<path d="M159.5,70.9c-21.8,5.6-44.4,10.8-67.7,15.6c-3.4,0.6-7,1.6-10.8,2.8c-2.6,0.9-4.8,1.8-6.7,2.8c-0.5,0.3-1,0.5-1.5,0.8
		c-0.4,0.2-0.7,0.3-0.9,0.3c-0.6,0-1.5-1.5-2.6-4.5c-1.2-3.2-1.8-5.2-1.8-5.9c0-0.2,0.3-0.4,0.8-0.7c0.5-0.2,1.2-0.5,2.1-0.7
		c2.1-0.5,4.2-1.5,6.2-2.8c9-7.1,18-15.3,27-24.5l2.8-3.1c-1-0.5-2-1.3-3.1-2.4c-8-7.9-19.3-13.8-34-17.8
		C80.2,23,88.6,14.2,94.4,4.5C97.6-1.5,99.4-6,99.7-9c0-2.4-2.5-4.4-7.6-6.2l1.8-3.7c5.8,0.3,10.7,1.7,14.6,4
		c2.7,1.7,4.1,3.2,4.1,4.5c0,1.2-0.4,2.2-1,3c-1,1.1-2.1,3-3.4,5.7C102.7,9.4,93,19.6,79.1,28.8c10.3,1.9,18.6,5.2,24.9,10
		c3.6,2.6,5.9,4.9,7,7c9.4-10.8,16.1-19.7,20.1-26.7c3.7-6.4,5.7-11.2,5.9-14.2c0-2.4-2.5-4.4-7.5-6.2l1.8-3.7
		c5.8,0.3,10.6,1.7,14.6,4c2.7,1.7,4.1,3.2,4.1,4.5c-0.1,1.2-0.5,2.2-1.1,3c-0.9,1.1-2.1,3-3.4,5.7c-6,12.5-17.4,27.3-34.1,44.7
		c-9.1,8.8-18,16.3-26.5,22.3c15.5-2.1,39.7-6.3,72.6-12.6c-4.3-8.5-10.8-17.7-19.6-27.6l3.4-2.9c10.2,8.1,18.6,17.1,25,27
		c6.3,9.5,9.4,17,9.4,22.6c0,5.4-2,8.1-5.9,8.1c-2.4,0-4.1-1.6-4.8-4.7C163.3,81.5,161.5,75.4,159.5,70.9z"/>
</g>
</svg>
