<?xml version="1.0" encoding="utf-8"?>
<!-- Generator: Adobe Illustrator 19.0.0, SVG Export Plug-In . SVG Version: 6.00 Build 0)  -->
<svg version="1.1" id="圖層_1" xmlns="http://www.w3.org/2000/svg" xmlns:xlink="http://www.w3.org/1999/xlink" x="0px" y="0px"
	 viewBox="45 -33.8 150 150" style="enable-background:new 45 -33.8 150 150;" xml:space="preserve">
<style type="text/css">
	.st0{enable-background:new    ;}
</style>
<g class="st0">
	<path d="M113.9,27.4c-0.6,0.5-1.3,0.7-2.1,0.7c-1.7,0-3.7-2.9-6-8.8c-5.6-10.4-16-20.4-31.1-30l2-3.6C93.2-7,104.1-0.8,109.5,4.4
		c4.4,5.1,6.6,10,6.6,14.6v1.5c2.1,0.8,4.1,1.8,6.1,2.9c0.3,0.2,0.7,0.4,1,0.7c12.8-10.7,22-21.3,27.5-31.6h-0.1
		c0.3-1.4,0.5-2.5,0.5-3.5c0-2.4-2.6-4.4-7.8-6.2l1.5-3.7c6.8,0.3,12.2,1.7,16.3,4c2.9,1.7,4.4,3.2,4.4,4.5c0,1.2-0.3,2.2-0.9,3
		c-0.7,0.8-1.7,2.1-3,3.7c-11.4,14.7-23.1,25.9-35,33.4c0.1,0.2,0.1,0.5,0.1,0.8c0,1.3-0.3,3.6-1,7c-0.5,1.8-0.9,6-1,12.7
		c0.8,19.8,1.2,34,1.2,42.6c0,5.8-2.1,8.7-6.3,8.7c-3.1,0-4.6-2.2-4.6-6.6c0-1.5,0.1-6.5,0.4-15l0.5-30.5c0-7.2-0.1-12.7-0.4-16.5
		C115.3,29.8,114.8,28.6,113.9,27.4z"/>
</g>
</svg>
