<?xml version="1.0" encoding="utf-8"?>
<!-- Generator: Adobe Illustrator 19.0.0, SVG Export Plug-In . SVG Version: 6.00 Build 0)  -->
<svg version="1.1" id="圖層_1" xmlns="http://www.w3.org/2000/svg" xmlns:xlink="http://www.w3.org/1999/xlink" x="0px" y="0px"
	 viewBox="45 -33.8 150 150" style="enable-background:new 45 -33.8 150 150;" xml:space="preserve">
<style type="text/css">
	.st0{enable-background:new    ;}
</style>
<g class="st0">
	<path d="M150.7-4.1c-1.1,22.1-1.9,47-2.3,74.6c0,4.2,0.2,7.2,0.7,8.9c0.5,1.9,1.6,3.6,3.1,5.2c2.6,2.6,5.6,3.9,9,3.9
		c3.3,0,6.3-0.7,9.2-2c2.1-1.1,4.2-1.6,6.2-1.6c4.7,0,7.1,1.6,7.1,4.8c0,1.9-1.4,3.4-4.2,4.5c-5.5,1.5-10.8,2.3-15.9,2.3
		c-2.7,0-5.2-0.3-7.5-1c-4.2-0.8-7.7-2.3-10.3-4.5c-3.7-3.2-6-6.9-6.7-11.3c-0.5-2.6-0.6-6.1-0.3-10.5c0.7-22,1.5-46.3,2.3-72.9
		c-5.7,0.4-12.4,0.9-20.1,1.4l-0.7,22.5c-0.3,9.6-0.5,18.3-0.5,26.1c0.1,17.1,0,30-0.2,38.7c-0.2,5.8-2.4,8.7-6.6,8.7
		c-3.1,0-4.5-2.2-4.4-6.6c0-1.5,0.3-4,0.7-7.7c1.2-16.4,2.1-35.6,2.7-57.7l0.7-23.4c-2.5,0.2-7.3,0.6-14.3,1.3
		c0,4.3-0.2,8.6-0.4,12.9C96.3,35,92.5,52.3,86.7,64.1C81,76,72.8,86.4,62.1,95.4l-2.7-3.7c11.3-12.3,19.3-26.2,23.8-41.8
		c3.7-13.2,5.6-28.7,5.7-46.4V0.7c-3,0.4-5.8,0.8-8.3,1.2c-1.6,0.3-2.9,0.7-3.7,1.1c-1.3,0.5-2.5,0.7-3.6,0.7
		c-4.2,0-8.7-4.1-13.5-12.3l3.3-2.6c4.3,3.8,8.2,5.7,11.8,5.7c5.4,0,15.4-0.7,30-2c21.9-1.9,35.8-3.1,41.7-3.6
		c4.8-0.5,8.2-1.2,10-2.1c1.7-1,3.9-1.5,6.6-1.5c3.1,0,5.8,0.6,8.1,1.9c2.2,1.2,3.3,2.7,3.3,4.5c0,2.6-1.8,3.9-5.4,3.9h-10.7
		C155.3-4.2,152.6-4.2,150.7-4.1z"/>
</g>
</svg>
