<?xml version="1.0" encoding="utf-8"?>
<!-- Generator: Adobe Illustrator 19.0.0, SVG Export Plug-In . SVG Version: 6.00 Build 0)  -->
<svg version="1.1" id="圖層_1" xmlns="http://www.w3.org/2000/svg" xmlns:xlink="http://www.w3.org/1999/xlink" x="0px" y="0px"
	 viewBox="45 -33.8 150 150" style="enable-background:new 45 -33.8 150 150;" xml:space="preserve">
<style type="text/css">
	.st0{enable-background:new    ;}
</style>
<g class="st0">
	<path d="M124.4,87.1c15.5-0.5,24.7-0.9,27.4-1.1c4.5-0.3,7.6-0.9,9.3-1.8c2.3-1.3,4.3-1.9,5.9-1.9c3.3,0,6.4,0.6,9.3,1.9
		c3.2,1.5,4.8,3.4,4.8,5.7c0,2.8-1.1,4.2-3.4,4.2c-1.4,0-3.5-0.1-6.3-0.3c-2.2-0.2-7.4-0.3-15.6-0.3c-25,0-48.8,1.2-71.1,3.7
		c-4.8,0.6-7.5,1.1-8.1,1.4c-1.1,0.6-2.5,0.9-4.4,0.9c-1.5,0-3.8-1.6-6.7-4.8c-2.6-2.8-4.9-6-6.9-9.5l3-2.9c3.4,3,6,5,7.9,5.9
		c2,0.9,4.3,1.4,7.1,1.4c2.8,0,8.1-0.2,15.7-0.7c4.2-0.3,12.2-0.8,23.9-1.3c0.1-10.2,0.2-20.5,0.2-31.1c-10.3,1-19.4,2.1-27.2,3.2
		c-3.9,0.7-6.7,1.6-8.5,2.6c-0.5,0.3-1,0.5-1.5,0.8c-0.4,0.2-0.7,0.3-0.9,0.3c-0.6,0-1.5-1.5-2.9-4.5c-1.5-3.2-2.2-5.2-2.2-5.9
		c0-0.2,0.2-0.4,0.7-0.7c0.5-0.2,0.9-0.6,1.3-1c0.6-0.7,1-1.7,1.1-3.1c0.9-9.3,1.3-19.8,1.3-31.5c0-5.9-0.5-9.7-1.5-11.4
		C75,3.4,72.7,2,69.4,1l1.2-3.8c5.4,0.3,9.8,1.5,13.2,3.4c2.7,1.6,4,3.3,4,5.1c0,0.9-0.2,2.2-0.6,3.9c-0.5,2.5-0.7,7.7-0.7,15.4
		l-0.7,26.4c10.8-0.4,21-0.9,30.6-1.6v-22c0-22.9-0.3-35.9-0.9-39c-0.7-3.4-3.9-6-9.4-7.8l1.3-3.8c5.8,0.2,10.7,1.6,14.7,4
		c3,1.8,4.5,3.5,4.5,5.1c0,1.3-0.3,2.6-1,4c-0.7,1.7-1,4.6-1,8.8c0,15.8,0,32.5-0.1,50.1c7.2-0.5,17.8-1.3,31.9-2.3
		c0.9-9.3,1.3-19.8,1.3-31.5c0-5.9-0.5-9.7-1.5-11.4c-1.3-2-3.6-3.4-6.9-4.4l1.2-3.8c5.4,0.3,9.8,1.5,13.2,3.4c2.7,1.6,4,3.3,4,5.1
		c0,0.9-0.2,2.2-0.6,3.9c-0.5,2.5-0.7,7.7-0.7,15.4V40c0,4.5,0,7.5,0.1,8.9v3c0,4.7-2,7-6,7c-2.8,0-4.4-2-4.6-5.9
		c-11.5,1-22,1.9-31.6,2.7C124.5,65.9,124.5,76.3,124.4,87.1z"/>
</g>
</svg>
