<?xml version="1.0" encoding="utf-8"?>
<!-- Generator: Adobe Illustrator 19.0.0, SVG Export Plug-In . SVG Version: 6.00 Build 0)  -->
<svg version="1.1" id="圖層_1" xmlns="http://www.w3.org/2000/svg" xmlns:xlink="http://www.w3.org/1999/xlink" x="0px" y="0px"
	 viewBox="45 -33.8 150 150" style="enable-background:new 45 -33.8 150 150;" xml:space="preserve">
<style type="text/css">
	.st0{enable-background:new    ;}
</style>
<g class="st0">
	<path d="M80.5,42.3c-1.6,0.3-2.9,0.7-3.7,1.1c-1.3,0.5-2.5,0.7-3.6,0.7c-4.2,0-8.7-4.1-13.5-12.3l3.3-2.6c4.3,3.8,8.2,5.7,11.8,5.7
		c5.4,0,18.2-0.9,38.5-2.7c18.2-1.4,30.3-2.3,36.3-2.9c4.8-0.5,8.2-1.2,10-2.1c1.7-1,3.9-1.5,6.6-1.5c3.1,0,5.8,0.6,8.1,1.9
		c2.2,1.2,3.3,2.7,3.3,4.5c0,2.6-1.8,3.9-5.4,3.9h-10.7c-3.9,0-6.8,0-8.8,0.1c-10.8,0.4-24,1.1-39.6,2.3
		C98.1,39.9,87.2,41.2,80.5,42.3z"/>
</g>
</svg>
