<?xml version="1.0" encoding="utf-8"?>
<!-- Generator: Adobe Illustrator 19.0.0, SVG Export Plug-In . SVG Version: 6.00 Build 0)  -->
<svg version="1.1" id="圖層_1" xmlns="http://www.w3.org/2000/svg" xmlns:xlink="http://www.w3.org/1999/xlink" x="0px" y="0px"
	 viewBox="45 -33.8 150 150" style="enable-background:new 45 -33.8 150 150;" xml:space="preserve">
<style type="text/css">
	.st0{enable-background:new    ;}
</style>
<g class="st0">
	<path d="M117.1-1.3v27.5c0,9.6,0.1,18.3,0.3,26.1c0.6,17.1,0.9,30,0.9,38.7c0,5.8-2.1,8.7-6.3,8.7c-3.1,0-4.6-2.2-4.6-6.6
		c0-1.5,0.1-4,0.4-7.7c0.7-16.4,1-35.6,1-57.7c0-12.2-0.1-21.6-0.2-28.2c-5.8,0.5-11.3,1.1-16.4,1.6c-2.8,0.3-5.2,0.8-7.1,1.2
		c-1.8,0.5-2.9,0.7-3.4,0.7c-2.1,0-4.5-1.2-7.2-3.7c-2.5-2.2-4.9-5.2-7-8.9l2.9-2.7c3,2.3,5.7,3.9,8.1,4.5c2,0.6,4.8,0.9,8.3,0.9
		c4.5,0,10.7-0.2,18.6-0.7c15.9-1.2,31.5-2.4,46.7-3.7c2.4-0.1,5.2-1,8.1-2.7c1.3-0.7,2.3-1,3.1-1c1.1,0,2.9,1.2,5.4,3.7
		c2.9,3.1,4.3,5.5,4.3,7.2c0,0.9-0.7,1.9-2.1,3c-1.5,1.1-2.4,3.3-2.7,6.8c-1.6,18.8-2.9,32.7-3.8,41.8c0,6.2-0.8,10.5-2.3,13
		c-1.4,2.3-3.1,3.4-5.1,3.4c-1.6,0-2.9-1.5-4-4.5c-1-3-2.2-5-3.6-6c-2.2-2.5-7-5.6-14.4-9.2l1.1-3.4c8.3,2.7,14.8,4.4,19.3,5.2
		c1.2-12.6,2.5-29.6,3.7-51C143.8-3.5,129.7-2.4,117.1-1.3z"/>
</g>
</svg>
