<?xml version="1.0" encoding="utf-8"?>
<!-- Generator: Adobe Illustrator 19.0.0, SVG Export Plug-In . SVG Version: 6.00 Build 0)  -->
<svg version="1.1" id="圖層_1" xmlns="http://www.w3.org/2000/svg" xmlns:xlink="http://www.w3.org/1999/xlink" x="0px" y="0px"
	 viewBox="45 -33.8 150 150" style="enable-background:new 45 -33.8 150 150;" xml:space="preserve">
<style type="text/css">
	.st0{enable-background:new    ;}
</style>
<g class="st0">
	<path d="M108.7-1.5c-1.3,25-5.9,45.3-14,60.8c-7.8,15.2-19.1,27.3-34,36.3L58.2,92c15-11.7,25.8-27.1,32.4-46.2
		c4.6-13.7,7.2-29.1,7.8-46.2C91.6,0.3,85.6,1.1,80.5,2c-1.6,0.3-2.9,0.7-3.7,1.1c-1.3,0.5-2.5,0.7-3.6,0.7
		c-4.2,0-8.7-4.1-13.5-12.3l3.3-2.6c4.3,3.8,8.2,5.7,11.8,5.7c5.4,0,15.4-0.7,30-2c21.9-1.9,35.8-3.1,41.7-3.6
		c4.8-0.5,8.2-1.2,10-2.1c1.7-1,3.9-1.5,6.6-1.5c3.1,0,5.8,0.6,8.1,1.9c2.2,1.2,3.3,2.7,3.3,4.5c0,2.6-1.8,3.9-5.4,3.9h-10.7
		c-3.9,0-6.8,0-8.8,0.1c-4.1,0.1-9,0.4-14.7,0.7c-0.1,1.2-0.2,2.5-0.4,3.9c-1.1,17.3-1.9,40.6-2.4,69.9c0,4.2,0.2,7.2,0.7,8.9
		c0.5,1.9,1.6,3.6,3.1,5.2c2.6,2.6,6.1,3.9,10.5,3.9c5.7,0,11.7-0.7,17.9-2c3.1-1.1,5.7-1.6,7.6-1.6c4.7,0,7.1,1.6,7.1,4.8
		c0,1.9-1.4,3.4-4.2,4.5c-6.4,1.5-13.5,2.3-21,2.3c-6.2,0-10.8-0.3-14.1-1c-4.2-0.8-7.7-2.3-10.3-4.5c-3.7-3.2-6-6.9-6.7-11.3
		c-0.5-2.6-0.6-6.1-0.3-10.5c0.7-22.2,1.4-46.1,2.1-71.9C119.8-2.3,114.5-1.9,108.7-1.5z"/>
</g>
</svg>
