<?xml version="1.0" encoding="utf-8"?>
<!-- Generator: Adobe Illustrator 19.0.0, SVG Export Plug-In . SVG Version: 6.00 Build 0)  -->
<svg version="1.1" id="圖層_1" xmlns="http://www.w3.org/2000/svg" xmlns:xlink="http://www.w3.org/1999/xlink" x="0px" y="0px"
	 viewBox="45 -33.8 150 150" style="enable-background:new 45 -33.8 150 150;" xml:space="preserve">
<style type="text/css">
	.st0{enable-background:new    ;}
</style>
<g class="st0">
	<path d="M123.5,48.5c-16.2,9.9-33.3,18.2-51.3,24.8l-1.9-4c25.4-11.8,47.7-25.5,66.9-41.3c11.1-9,16.6-14.7,16.6-17.2
		c0-1.6-1.7-3.4-5-5.6l1.7-3.3c11.3,2.9,16.9,6.3,16.9,10c0,1.1-0.5,2.3-1.5,3.6c-0.8,1.1-2.2,2.7-4.2,4.7
		c-6.5,6.8-16.4,14.4-29.7,22.9c-0.1,0-0.2,0.1-0.2,0.1v10c0,13,0.3,24,1,33c0.1,1,0.1,2.2,0.1,3.7c0,4.5-0.7,7.7-2.1,9.4
		c-1.3,1.5-2.9,2.3-4.6,2.3c-1.2,0-2.3-0.6-3.2-1.7c-0.7-0.9-1.1-2-1.1-3.1c0-4.1,0-6.8,0.1-8.1C123,75.9,123.5,62.5,123.5,48.5z
		 M79.9,32.3l-2.1-3.8c10.4-4.6,20.5-10.3,30.3-16.8c9.2-6.2,18.4-13.7,27.6-22.4c1.9-1.8,2.9-3.5,2.9-5.1c0-1-1.4-2.3-4.2-4
		l1.6-3.3c10,2.7,15,5.3,15,7.9c0,1.2-1,2.8-2.9,5c-6.3,6.8-15.8,14.4-28.4,22.9C107.8,20.7,94.5,27.2,79.9,32.3z"/>
</g>
</svg>
