<?xml version="1.0" encoding="utf-8"?>
<!-- Generator: Adobe Illustrator 19.0.0, SVG Export Plug-In . SVG Version: 6.00 Build 0)  -->
<svg version="1.1" id="圖層_1" xmlns="http://www.w3.org/2000/svg" xmlns:xlink="http://www.w3.org/1999/xlink" x="0px" y="0px"
	 viewBox="45 -33.8 150 150" style="enable-background:new 45 -33.8 150 150;" xml:space="preserve">
<style type="text/css">
	.st0{enable-background:new    ;}
</style>
<g class="st0">
	<path d="M115.2-2c-3.3,0.2-6.8,0.5-10.4,0.8c-9.5,1-17.6,2-24.3,3.1c-1.6,0.3-2.9,0.7-3.7,1.1c-1.3,0.5-2.5,0.7-3.6,0.7
		c-4.2,0-8.7-4.1-13.5-12.3l3.3-2.6c4.3,3.8,8.2,5.7,11.8,5.7c5.4,0,15.4-0.7,30-2c21.9-1.9,35.8-3.1,41.7-3.6
		c4.8-0.5,8.2-1.2,10-2.1c1.7-1,3.9-1.5,6.6-1.5c3.1,0,5.8,0.6,8.1,1.9c2.2,1.2,3.3,2.7,3.3,4.5c0,2.6-1.8,3.9-5.4,3.9h-10.7
		c-3.9,0-6.8,0-8.8,0.1c-6.7,0.2-15.1,0.7-25.2,1.4c-0.3,3.1-0.4,7.6-0.4,13.6c0,6.9,0,11.1,0.1,12.7v3.4c0,4.2-2,6.4-6,6.4
		c-1.9,0-3.1-0.5-3.9-1.4c-8.4,0.1-15.6,2.6-21.5,7.4c-6.5,5.6-9.7,13.4-9.7,23.4c0,8.7,3.4,16.1,10.1,22.1
		c6.4,5.5,15.4,8.5,27.1,9.1c8,0,16.1-1.9,24.3-5.4c7.8-3.6,14.8-9.5,21.2-17.6l3.5,3c-2.6,4.9-5.4,8.9-8.6,11.9
		c-3.2,3.1-7.4,6-12.5,8.8c-8.2,4.2-18.5,6.3-31,6.4c-14.3-0.5-25-4.5-32.4-12C77.7,82,74.1,72.9,74.1,62.1c0-5.8,1.1-11.1,3.2-16
		c2.1-4.9,5.1-9.1,8.9-12.7c4.1-3.5,8.7-6.1,13.8-8c4.4-1.6,9-2.5,13.9-2.7c0-0.5,0.1-1,0.1-1.5c0.9-5.1,1.3-11,1.3-17.8
		C115.4,1.3,115.3-0.4,115.2-2z"/>
</g>
</svg>
