<?xml version="1.0" encoding="UTF-8"?>
<!-- Generator: Adobe Illustrator 19.0.0, SVG Export Plug-In . SVG Version: 6.00 Build 0)  -->
<svg version="1.1" id="圖層_1" xmlns="http://www.w3.org/2000/svg" xmlns:xlink="http://www.w3.org/1999/xlink" x="0px" y="0px" viewBox="45 -33.8 150 150" style="enable-background:new 45 -33.8 150 150;" xml:space="preserve">
<style type="text/css">
	.st0{enable-background:new    ;}
</style>
<g class="st0">
	<path d="M80.2-3c14.7-0.5,36.9-2.4,66.6-5.7c7-1,11.8-2.1,14.4-3.4c1.8-0.9,3.2-1.3,4.3-1.3c3,0,5.7,0.6,8.1,1.9   c2.3,1.2,3.4,2.7,3.4,4.4c0,2.3-1.7,3.5-5.1,3.6c-16.8,0.7-46.9,3-90.2,7c-0.5,3.4-0.9,7.7-1,13.1c-0.2,8.8-0.4,20.4-0.7,34.6   c-0.2,15.7-0.4,26.9-0.6,33.6c11.1-0.2,21-0.5,29.7-0.8c10.5-0.4,25.6-1.1,45-2.3c5.8-0.6,9.7-1.2,11.7-1.8c1.6-0.5,3-0.8,4.2-0.8   c2.7,0,5.4,0.6,8.1,1.9c2.9,1.6,4.3,3.3,4.3,5.1c0,2.6-2,4-5.9,4c-2.2,0-4.7-0.1-7.5-0.3c-4.1-0.2-8.6-0.4-13.5-0.4   c-12.2,0-32.6,0.9-61.2,2.6C88,92.9,84.1,93.6,82.4,94c-3.5,0.9-6.2,1.9-8,2.9c-0.5,0.3-1,0.5-1.5,0.8C72.5,97.9,72.2,98,72,98   c-0.6,0-1.5-1.5-2.9-4.5c-1.5-3.2-2.2-5.2-2.2-5.9c0-0.2,0.2-0.4,0.7-0.7c0.5-0.2,0.9-0.6,1.3-1c0.9-0.7,1.6-4.9,2-12.5   c0.1-6,0.2-15,0.4-27.1c0-26.8-0.3-41.4-0.9-43.7c-0.4-1.8-1.3-3.3-2.8-4.5c-1.1-0.9-2.9-1.9-5.3-3.1l1.3-3.9   c6,0.8,10.7,2.3,14.3,4.4C78.8-3.9,79.5-3.4,80.2-3z"/>
</g>
</svg>