<?xml version="1.0" encoding="UTF-8"?>
<!-- Generator: Adobe Illustrator 19.0.0, SVG Export Plug-In . SVG Version: 6.00 Build 0)  -->
<svg version="1.1" id="圖層_1" xmlns="http://www.w3.org/2000/svg" xmlns:xlink="http://www.w3.org/1999/xlink" x="0px" y="0px" viewBox="45 -33.8 150 150" style="enable-background:new 45 -33.8 150 150;" xml:space="preserve">
<style type="text/css">
	.st0{enable-background:new    ;}
</style>
<g class="st0">
	<path d="M146.4,6.1c2.1-0.3,4.1-1.1,5.7-2.2c1.5-0.9,2.6-1.3,3.1-1.3c1,0,2.8,1.3,5.6,4c2.7,2.7,4,4.7,4,6c0,1.1-0.7,2-2,2.6   c-2.1,0.9-3.8,2.9-5.3,6c-5.2,9-13.4,19.9-24.8,32.7C143,60,152,65.9,159.6,71.6c12.5,9.6,18.8,16.4,18.8,20.2   c0,3.6-1.8,5.4-5.3,5.4c-1.6,0-3.8-1.5-6.4-4.6c-9.7-10.4-22.9-21.3-39.6-33c-8.1,8-16.5,14.6-25.3,19.9   C92.2,86.3,81,92.1,68.3,97.1l-1.7-4.2C87.9,81.7,105.7,69,120,54.7c0,0,0.1-0.1,0.1-0.1c-3-2.1-7.2-4.6-12.5-7.7   c-8.1-4.5-15.2-8.1-21.5-10.7l2.6-3.7c7.1,2.1,14.7,5.2,22.9,9.3c4.7,2.6,9.3,5.1,13.5,7.6c11.3-12.2,19.7-24.7,25-37.6   c-17.5,1.8-32.2,3.4-44.1,5.1c-8.7,1.3-14.5,2.2-17.1,2.9c-3.5,0.9-6.2,1.9-8,2.9c-0.5,0.3-1,0.5-1.5,0.8s-0.7,0.3-0.9,0.3   c-0.6,0-1.5-1.5-2.9-4.5c-1.5-3.5-2.2-5.5-2.2-6.2c0-0.2,0.2-0.4,0.7-0.7c0.5-0.2,1.2-0.5,2.1-0.7c2.1-0.5,4.4-1.6,6.8-3.3   c2.4-1.7,4.7-4.5,6.7-8.6c2-4.8,3-8.6,3-11.3c0-2.7-2.4-5-7.2-7l1.3-3.7c11.7,1.6,17.6,5.1,17.6,10.5c0,1.3-0.5,3.2-1.4,5.6   C101.4-0.6,97,5.7,90,12.6C109,10.7,127.8,8.6,146.4,6.1z"/>
</g>
</svg>