<?xml version="1.0" encoding="UTF-8"?>
<!-- Generator: Adobe Illustrator 19.0.0, SVG Export Plug-In . SVG Version: 6.00 Build 0)  -->
<svg version="1.1" id="圖層_1" xmlns="http://www.w3.org/2000/svg" xmlns:xlink="http://www.w3.org/1999/xlink" x="0px" y="0px" viewBox="45 -33.8 150 150" style="enable-background:new 45 -33.8 150 150;" xml:space="preserve">
<style type="text/css">
	.st0{enable-background:new    ;}
</style>
<g class="st0">
	<path d="M86.7,21.1c-5.9,1.2-9.7,2.3-11.5,3.3c-0.5,0.3-1,0.5-1.5,0.8s-0.7,0.3-0.9,0.3c-0.6,0-1.5-1.5-2.9-4.5   c-1.5-3.2-2.2-5.2-2.2-5.9c0-0.2,0.2-0.4,0.7-0.7c0.5-0.2,1.2-0.5,2.1-0.7c2.1-0.5,4.2-1.5,6.4-2.9c2.1-1.4,4.5-4.4,7.1-9   c2.8-6.3,4.2-10.8,4.2-13.5c0-2.7-2.4-5-7.2-7l1.3-3.7c11.7,1.6,17.6,5.1,17.6,10.5c0,1.3-0.7,3.6-2.1,6.7   C94.6,3.1,89.6,10.1,83,15.8c12.2-1.1,23.9-2.2,34.9-3.3c1.3-4,2.5-8.1,3.7-12.4c1.2-4.1,1.8-7.5,1.8-10.2c0-3.1-2.3-5.8-7-8.3   l1.5-3.7c5.6,1,10,2.7,13.3,5c2.7,1.9,4.1,3.8,4.1,5.7c0,1.3-0.3,2.5-0.8,3.7c-0.7,1.3-1.3,2.7-1.8,4.2c-1.5,5.2-3.1,10.2-4.7,14.9   c9.8-1,19-2.1,27.8-3.1c2.1-0.2,3.6-0.9,4.6-1.9c1.3-1.3,2.3-2,3-2c1.8,0,4.2,1.5,7.4,4.5c2.9,2.9,4.3,5.2,4.3,6.8   c0,1.2-0.9,2.4-2.7,3.7c-1.5,0.9-2.5,2.5-2.9,4.9c-4.7,30.8-11.6,52.9-20.8,66.5c-3.2,4.9-6.6,7.3-10,7.3c-2.6,0-3.9-1.2-3.9-3.7   c0-1-0.7-2.7-2.1-5c-1.8-2.9-6.1-7.2-12.7-13l2.6-3.9c3.9,2.8,8.5,6,14,9.6c2.1,1.4,3.8,2.1,5.1,2.1c1,0,1.9-0.9,2.7-2.6   c9.6-16.9,15.4-39.4,17.5-67.2c-11.4,0.7-23.3,1.6-35.9,2.7c-6.7,18.4-14.4,33.3-23.2,44.9c-11,14.6-24.9,26.8-41.7,36.3L58.8,95   c15.6-10.6,28.8-24.3,39.8-40.9c6.7-10.3,12.5-22.3,17.4-36C106,19,96.2,20,86.7,21.1z"/>
</g>
</svg>