<?xml version="1.0" encoding="utf-8"?>
<!-- Generator: Adobe Illustrator 19.0.0, SVG Export Plug-In . SVG Version: 6.00 Build 0)  -->
<svg version="1.1" id="圖層_1" xmlns="http://www.w3.org/2000/svg" xmlns:xlink="http://www.w3.org/1999/xlink" x="0px" y="0px"
	 viewBox="45 -33.8 150 150" style="enable-background:new 45 -33.8 150 150;" xml:space="preserve">
<style type="text/css">
	.st0{enable-background:new    ;}
</style>
<g class="st0">
	<path d="M115.4,48.8c-3.2,0.5-5.6,1-7.2,1.4c-3.5,0.9-6.2,1.9-8,2.9c-0.5,0.3-1,0.5-1.5,0.8c-0.4,0.2-0.7,0.3-0.9,0.3
		c-0.6,0-1.5-1.5-2.9-4.5c-1.5-3.2-2.2-5.2-2.2-5.9c0-0.2,0.2-0.4,0.7-0.7c0.5-0.2,1-0.5,1.4-0.7c1.3-0.5,2.3-1.3,3.1-2.4
		c4.3-6.7,7.8-14.1,10.6-22c-10.1,1.1-18.4,2.1-24.9,3.1c-1.8,0.3-3.2,0.6-4.2,1c-1.4,0.4-2.4,0.6-3,0.6c-2.6,0-5.4-1.5-8.5-4.5
		c-2.6-2.4-4.8-5.4-6.7-8.9l3.1-2.7c3.3,2.6,5.9,4.3,7.6,5.1c1.8,0.7,4.1,1.1,6.8,1.1c5.7,0,16.3-0.6,31.9-1.8
		c1.6-5.6,2.7-11.3,3.4-17.1c0.4-2,0.1-3.8-1-5.6c-1.6-2.2-4.7-4-9.4-5.3l1.2-4c6.7,0.1,11.9,0.9,15.6,2.3c2.7,1.1,4,2.8,4,5.1
		c0,1.4-0.2,3-0.7,5c-1.2,6.5-2.7,12.8-4.6,18.9c1.7-0.1,3.5-0.3,5.3-0.4c20.6-1.8,32-3.1,34.1-3.9c2.9-1.1,5.5-1.7,7.7-1.7
		c3.9,0,7.1,0.8,9.4,2.3c2.2,1.4,3.3,3.1,3.3,5.3c0,2.2-2,3.3-6,3.3l-14.9-0.4c-6,0-15.7,0.4-29.2,1.2c-7.5,0.6-11.5,1-12,1
		c-3.7,9.8-8.4,18.9-14.2,27.3c9-0.7,22.2-2,39.4-4c2.1-0.2,3.6-0.9,4.6-1.9c1.3-1.3,2.3-2,3-2c1.8,0,4.2,1.5,7.4,4.5
		c2.9,2.9,4.3,5.2,4.3,6.8c0,1.2-0.9,2.4-2.7,3.7c-0.9,0.5-1.9,1.6-3.1,3.4c-3.4,6.1-8.6,13-15.7,20.7c-7.4,7.9-16.6,15.3-27.5,22.3
		l-3.1-3.6c9.3-7.3,16.8-14.4,22.6-21.2c5.6-6.7,9.5-12,11.8-15.8c2.1-3.7,3.7-7.3,4.5-10.6C134.8,47.1,123.8,47.9,115.4,48.8z"/>
</g>
</svg>
