<?xml version="1.0" encoding="utf-8"?>
<!-- Generator: Adobe Illustrator 19.0.0, SVG Export Plug-In . SVG Version: 6.00 Build 0)  -->
<svg version="1.1" id="圖層_1" xmlns="http://www.w3.org/2000/svg" xmlns:xlink="http://www.w3.org/1999/xlink" x="0px" y="0px"
	 viewBox="45 -33.8 150 150" style="enable-background:new 45 -33.8 150 150;" xml:space="preserve">
<style type="text/css">
	.st0{enable-background:new    ;}
</style>
<g class="st0">
	<path d="M116.4-1.7C105.9-1,94.3-0.1,81.5,0.8c-0.1,3.8-0.3,7.4-0.4,10.8v14.6c0,9.6,0.1,18.3,0.3,26.1c0.6,17.1,0.9,30,0.9,38.7
		c0,5.8-2.1,8.7-6.3,8.7c-3.1,0-4.6-2.2-4.6-6.6c0-1.5,0.1-4,0.4-7.7c0.7-16.4,1-35.6,1-57.7v-9.8h-0.1v-7.3c0-2.1,0-4-0.1-5.8
		c-0.2-5.1-1-8.3-2.3-9.7c-1.8-2-4.1-3.7-7-5.1l1.5-4c4.1,0.7,7.8,1.9,11,3.5c2.6,1.4,4.4,2.8,5.3,4.2c11.1-0.5,23.3-1.3,36.5-2.3
		c12-0.6,26.3-1.7,42.8-3.2l5.6-6.2c6.3,4.6,9.4,7.7,9.4,9.2c0,1-0.5,1.8-1.5,2.6l-3.7,3c0,23.2-0.1,45.6-0.1,67.2
		c0,7.8,0.5,14.4,1.6,19.8c0.3,1.7,0.4,3.2,0.4,4.6c0,3.3-1,6.2-2.9,8.9c-1.3,1.8-2.6,2.7-3.9,2.7c-3,0-4.5-3.7-4.5-11.1
		c0-1,0-1.8,0.1-2.5c0.4-3.6,0.6-8.9,0.6-15.7c0-20.3,0-45.7,0.1-76.4c-14.9,1.2-27.3,2.2-37.2,3.1v28.1c0,9.6,0.1,18.3,0.3,26.1
		c0.6,17.1,0.9,30,0.9,38.7c0,5.8-2.1,8.7-6.3,8.7c-3.1,0-4.6-2.2-4.6-6.6c0-1.5,0.1-4,0.4-7.7c0.7-16.4,1-35.6,1-57.7V-1.7z"/>
</g>
</svg>
