<?xml version="1.0" encoding="UTF-8"?>
<!-- Generator: Adobe Illustrator 19.0.0, SVG Export Plug-In . SVG Version: 6.00 Build 0)  -->
<svg version="1.1" id="圖層_1" xmlns="http://www.w3.org/2000/svg" xmlns:xlink="http://www.w3.org/1999/xlink" x="0px" y="0px" viewBox="45 -33.8 150 150" style="enable-background:new 45 -33.8 150 150;" xml:space="preserve">
<style type="text/css">
	.st0{enable-background:new    ;}
</style>
<g class="st0">
	<path d="M110.8,18.6c2.4-8,4.3-16.2,5.8-24.7c0.4-2,0.1-3.8-1-5.6c-1.6-2.2-4.7-4-9.4-5.3l1.2-4c6.7,0.1,11.9,0.9,15.6,2.3   c2.7,1.1,4,2.8,4,5.1c0,1.4-0.2,3-0.7,5c-2.2,9.4-4.6,18.2-7.3,26.4c15.1-1.2,25.8-2.2,32-2.9c2.7-0.3,5.4-0.9,7.9-1.8   c1.9-0.8,3.4-1.2,4.7-1.2c4.4,0,7.8,0.8,10.1,2.3c2,1.2,2.9,2.8,2.9,4.7c0,2.4-1.8,3.6-5.4,3.6c-2.8,0-5.4-0.1-7.8-0.3   c-3.5-0.2-7.3-0.3-11.3-0.3c-4.9,0-15.1,0.5-30.8,1.5c-1.5,0.1-3,0.3-4.5,0.5c-8.2,23.7-18.3,42.1-30.4,55.2   c15.7-2.1,39.4-6.3,71-12.5c-4.3-8.6-10.9-17.9-19.8-27.9l3.4-2.9c10.2,8.1,18.6,17.1,25,27c6.3,9.5,9.4,17,9.4,22.6   c0,5.4-2,8.1-5.9,8.1c-2.4,0-4.1-1.6-4.8-4.7c-1.7-7.6-3.5-13.5-5.3-17.7c-19.8,5.2-41.4,10.3-64.7,15.1c-8.3,2.1-14,3.9-17.1,5.6   c-0.5,0.3-1,0.5-1.5,0.8c-0.4,0.2-0.7,0.3-0.9,0.3c-0.6,0-1.5-1.5-2.9-4.5c-1.5-3.2-2.2-5.2-2.2-5.9c0-0.2,0.2-0.4,0.7-0.7   c0.5-0.2,1.2-0.5,2.1-0.7c2.1-0.5,4.1-1.5,5.9-2.8c0.8-0.6,1.7-1.3,2.5-2.1c10.4-13,19.4-30.2,27-51.6c-8.5,1-16,1.9-22.6,2.6   c-2.9,0.3-5.2,0.8-6.7,1.2c-1.3,0.5-2.5,0.7-3.4,0.7c-2.3,0-4.8-1.2-7.5-3.7c-2.5-2.2-4.7-5-6.6-8.5l3.1-2.4c4.6,4,9.2,6,13.7,6   C83,21,93.7,20.2,110.8,18.6z"/>
</g>
</svg>