<?xml version="1.0" encoding="utf-8"?>
<!-- Generator: Adobe Illustrator 19.0.0, SVG Export Plug-In . SVG Version: 6.00 Build 0)  -->
<svg version="1.1" id="圖層_1" xmlns="http://www.w3.org/2000/svg" xmlns:xlink="http://www.w3.org/1999/xlink" x="0px" y="0px"
	 viewBox="45 -33.8 150 150" style="enable-background:new 45 -33.8 150 150;" xml:space="preserve">
<style type="text/css">
	.st0{enable-background:new    ;}
</style>
<g class="st0">
	<path d="M77.2,38.7c19.9-2.9,45.9-5.7,78.1-8.4c2.5-0.2,4.3-0.9,5.3-1.9c1.3-1.3,2.3-2,3-2c1.8,0,4.2,1.5,7.4,4.5
		c2.9,2.9,4.3,5.2,4.3,6.8c0,1.2-0.9,2.4-2.7,3.7c-0.6,0.3-1.1,0.8-1.6,1.5c-10.4,21-24.7,39.8-42.7,56.3l-3.1-3.6
		c15-16.1,26.9-34.4,35.6-54.7c0.6-1.6,1-3.1,1.2-4.5c-25.6,1.4-50.2,3.7-73.8,7c-3.8,0.6-6.4,1.1-7.9,1.5c-3.5,0.9-6.2,1.9-8,2.9
		c-0.5,0.3-1,0.5-1.5,0.8S70,49,69.9,49c-0.6,0-1.5-1.5-2.9-4.5c-1.5-3.2-2.2-5.2-2.2-5.9c0-0.2,0.2-0.4,0.7-0.7
		c0.5-0.2,1.2-0.5,2.1-0.7c1.4-0.4,2.8-1.5,4.2-3.4c2.5-3.5,4.7-9.1,6.5-16.8c1.4-6.2,2.1-12.5,2-19.2c0-2.5-0.4-4.8-1-6.8
		c-0.6-2.1-2.3-4-4.9-5.9l2.3-3c2.8,1,5.2,2.3,7.3,3.9c3.7,3,5.5,7.1,5.5,12.5c0,1.5-0.1,3-0.2,4.5S88.9,6,88.6,7.7
		c-1.6,8.9-3.9,16.8-6.9,23.7C80.3,34.5,78.8,36.9,77.2,38.7z"/>
</g>
</svg>
