<?xml version="1.0" encoding="utf-8"?>
<!-- Generator: Adobe Illustrator 19.0.0, SVG Export Plug-In . SVG Version: 6.00 Build 0)  -->
<svg version="1.1" id="圖層_1" xmlns="http://www.w3.org/2000/svg" xmlns:xlink="http://www.w3.org/1999/xlink" x="0px" y="0px"
	 viewBox="45 -33.8 150 150" style="enable-background:new 45 -33.8 150 150;" xml:space="preserve">
<style type="text/css">
	.st0{enable-background:new    ;}
</style>
<g class="st0">
	<path d="M100.2,11C98,32.6,93.5,49.8,86.7,62.7c-6.2,11.8-15.4,22.2-27.5,31.3l-2.7-3.7C69.2,78,78.4,64,83.9,48.5
		C88.6,35.2,91,19.8,91.1,2v-3.1c0-4.1-0.8-6.9-2.3-8.3c-2.1-1.8-4.2-3.1-6.2-3.7l1.5-3.9c5.3,0.6,9.6,1.8,12.9,3.6
		c3.5,1.9,5.3,4,5.3,6.2c0,1.3-0.2,2.6-0.6,4c-0.2,1.1-0.5,2.9-0.7,5.3C100.9,4.3,100.6,7.3,100.2,11z M128.3-4.9
		c-0.1-3-0.4-5-0.7-6c-0.8-2.8-3.8-4.9-9-6.2l0.7-4.4c5,0.1,9.9,1,14.7,2.8c3.7,1.5,5.5,3.3,5.5,5.5c0,1.8-0.1,3.5-0.4,5.1
		c-0.3,2.4-0.6,5.3-0.8,8.6c-1.1,17.3-1.9,40.6-2.4,69.9c0,4.2,0.2,7.2,0.7,8.9c0.5,1.9,1.6,3.6,3.1,5.2c2.6,2.6,6.1,3.9,10.5,3.9
		c4.2,0,9-0.7,14.3-2c3.1-1.1,5.7-1.6,7.6-1.6c4.7,0,7.1,1.6,7.1,4.8c0,1.9-1.4,3.4-4.2,4.5c-6.4,1.5-13.5,2.3-21,2.3
		c-3.7,0-7.2-0.3-10.4-1c-4.2-0.8-7.7-2.3-10.3-4.5c-3.7-3.2-6-6.9-6.7-11.3c-0.5-2.6-0.6-6.1-0.3-10.5
		C127,46.4,127.7,21.7,128.3-4.9z"/>
</g>
</svg>
