<?xml version="1.0" encoding="UTF-8"?>
<!-- Generator: Adobe Illustrator 19.0.0, SVG Export Plug-In . SVG Version: 6.00 Build 0)  -->
<svg version="1.1" id="圖層_1" xmlns="http://www.w3.org/2000/svg" xmlns:xlink="http://www.w3.org/1999/xlink" x="0px" y="0px" viewBox="45 -33.8 150 150" style="enable-background:new 45 -33.8 150 150;" xml:space="preserve">
<style type="text/css">
	.st0{enable-background:new    ;}
</style>
<g class="st0">
	<path d="M109.9-1.6c-1.7,0.1-3.3,0.2-5.1,0.4c-9.5,1-17.6,2-24.3,3.1c-1.6,0.3-2.9,0.7-3.7,1.1c-1.3,0.5-2.5,0.7-3.6,0.7   c-4.2,0-8.7-4.1-13.5-12.3l3.3-2.6c4.3,3.8,8.2,5.7,11.8,5.7c5.4,0,15.4-0.7,30-2c21.9-1.9,35.8-3.1,41.7-3.6   c4.8-0.5,8.2-1.2,10-2.1c1.7-1,3.9-1.5,6.6-1.5c3.1,0,5.8,0.6,8.1,1.9c2.2,1.2,3.3,2.7,3.3,4.5c0,2.6-1.8,3.9-5.4,3.9h-10.7   c-3.9,0-6.8,0-8.8,0.1c-7.4,0.2-16.7,0.8-28.1,1.6c-4.2,7.6-11.5,18.2-22,31.9c9.2-0.7,22.7-2,40.5-3.8c2.1-0.2,3.6-0.9,4.6-1.9   c1.3-1.3,2.3-2,3-2c1.8,0,4.2,1.5,7.4,4.5c2.9,2.9,4.3,5.2,4.3,6.8c0,1.2-0.9,2.4-2.7,3.7c-1.5,0.9-2.5,2.5-2.9,4.9   c-4.4,19.2-11.2,35.6-20.4,49.1c-3.2,4.9-6.6,7.3-10,7.3c-2.6,0-3.9-1.2-3.9-3.7c0-1-0.7-2.7-2.1-5c-1.8-2.9-6.1-7.2-12.7-13   l2.6-3.9c3.9,2.8,8.5,6,14,9.6c2.1,1.4,3.8,2.1,5.1,2.1c1,0,1.9-0.9,2.7-2.6c9.6-16.9,15.3-33.6,17.1-49.9   c-16.4,0.7-28.8,1.4-37.2,2.3c-4.1,0.6-6.8,1.1-8.1,1.4c-3.5,0.9-6.2,1.9-8,2.9c-0.5,0.3-1,0.5-1.5,0.8s-0.7,0.3-0.9,0.3   c-0.6,0-1.5-1.5-2.9-4.5c-1.5-3.2-2.2-5.2-2.2-5.9c0-0.2,0.2-0.4,0.7-0.7c0.5-0.2,1.2-0.5,2.1-0.7c2.1-0.5,4.1-1.5,5.9-2.8   c1.3-0.9,2.5-2.1,3.7-3.4C103.8,12,107.8,4.3,109.9-1.6z"/>
</g>
</svg>