<?xml version="1.0" encoding="UTF-8"?>
<!-- Generator: Adobe Illustrator 19.0.0, SVG Export Plug-In . SVG Version: 6.00 Build 0)  -->
<svg version="1.1" id="圖層_1" xmlns="http://www.w3.org/2000/svg" xmlns:xlink="http://www.w3.org/1999/xlink" x="0px" y="0px" viewBox="45 -33.8 150 150" style="enable-background:new 45 -33.8 150 150;" xml:space="preserve">
<style type="text/css">
	.st0{enable-background:new    ;}
</style>
<g class="st0">
	<path d="M146.4,46c0-5.9,0.1-11.9,0.1-18.2c0-22.9-0.3-35.9-0.9-39c-0.7-3.4-3.9-6-9.4-7.8l1.3-3.8c5.8,0.2,10.7,1.6,14.7,4   c3,1.8,4.5,3.5,4.5,5.1c0,1.3-0.3,2.6-1,4c-0.7,1.7-1,4.6-1,8.8v27.2c0,9.6,0.1,18.3,0.3,26.1c0.6,17.1,0.9,30,0.9,38.7   c0,5.8-2.1,8.7-6.3,8.7c-3.1,0-4.6-2.2-4.6-6.6c0-1.5,0.1-4,0.4-7.7c0.4-10.1,0.7-21.2,0.9-33.5c-12.5,4.5-26.5,8.6-42,12.5   C96,66.7,91,68.3,89.2,69.3c-0.5,0.3-1,0.5-1.5,0.8c-0.4,0.2-0.7,0.3-0.9,0.3c-0.6,0-1.5-1.5-2.9-4.5c-1.5-3.2-2.2-5.2-2.2-5.9   c0-0.2,0.2-0.4,0.7-0.7c0.5-0.2,0.9-0.6,1.3-1c0.7-0.8,1.1-2.7,1.2-5.5c0.9-19.4,1.3-35.2,1.3-47.3c0-6.2-0.5-10.2-1.5-11.9   c-1.3-2.1-3.6-3.6-6.9-4.6l1.2-4c5.4,0.3,9.8,1.5,13.2,3.5c2.7,1.7,4,3.4,4,5.3c0,0.9-0.2,2.3-0.6,4C95.3,0.7,95,6.1,95,14.1   c0,21.2-0.2,35.8-0.5,43.6C108.5,55.3,125.8,51.3,146.4,46z"/>
</g>
</svg>