<?xml version="1.0" encoding="UTF-8"?>
<!-- Generator: Adobe Illustrator 19.0.0, SVG Export Plug-In . SVG Version: 6.00 Build 0)  -->
<svg version="1.1" id="圖層_1" xmlns="http://www.w3.org/2000/svg" xmlns:xlink="http://www.w3.org/1999/xlink" x="0px" y="0px" viewBox="45 -33.8 150 150" style="enable-background:new 45 -33.8 150 150;" xml:space="preserve">
<style type="text/css">
	.st0{enable-background:new    ;}
</style>
<g class="st0">
	<path d="M95.8,2.2c3.3-6.4,5-11.2,5-14.2c0-2.4-2.6-4.4-7.8-6.2l1.5-3.7c5.8,0.3,10.7,1.7,14.8,4c2.9,1.7,4.4,3.2,4.4,4.5   c0,1.2-0.3,2.2-0.9,3c-0.9,1.1-1.9,3-3,5.7c-5.1,12-16.1,25.2-33,39.6c10.3,7.5,19.2,16.6,26.8,27.4c8.6,12,12.9,21.5,12.9,28.3   c0,5.3-1.8,7.9-5.3,7.9c-2.7,0-4.6-2.4-5.9-7.2c-5.3-21.3-17.3-40-36-56.1C82.5,22,91.3,11,95.8,2.2z M146.4,2.2   c3.3-6.4,5-11.2,5-14.2c0-2.4-2.6-4.4-7.8-6.2l1.5-3.7c5.8,0.3,10.7,1.7,14.8,4c2.9,1.7,4.4,3.2,4.4,4.5c0,1.2-0.3,2.2-0.9,3   c-0.9,1.1-1.9,3-3,5.7c-5,11.9-15.6,25.6-31.6,41.1c9.4,6.6,17.8,15.3,25.3,25.9c8.6,12,12.9,21.5,12.9,28.3c0,5.3-1.8,7.9-5.3,7.9   c-2.7,0-4.6-2.4-5.9-7.2c-5.3-21.3-16.7-39.5-34.2-54.6C133.9,22.2,142.1,10.7,146.4,2.2z"/>
</g>
</svg>