<?xml version="1.0" encoding="utf-8"?>
<!-- Generator: Adobe Illustrator 19.0.0, SVG Export Plug-In . SVG Version: 6.00 Build 0)  -->
<svg version="1.1" id="圖層_1" xmlns="http://www.w3.org/2000/svg" xmlns:xlink="http://www.w3.org/1999/xlink" x="0px" y="0px"
	 viewBox="45 -33.8 150 150" style="enable-background:new 45 -33.8 150 150;" xml:space="preserve">
<style type="text/css">
	.st0{enable-background:new    ;}
</style>
<g class="st0">
	<path d="M102.1-0.9C93.7,0,86.5,0.9,80.5,2c-1.6,0.3-2.9,0.7-3.7,1.1c-1.3,0.5-2.5,0.7-3.6,0.7c-4.2,0-8.7-4.1-13.5-12.3l3.3-2.6
		c4.3,3.8,8.2,5.7,11.8,5.7c5.4,0,15.4-0.7,30-2c21.9-1.9,35.8-3.1,41.7-3.6c4.8-0.5,8.2-1.2,10-2.1c1.7-1,3.9-1.5,6.6-1.5
		c3.1,0,5.8,0.6,8.1,1.9c2.2,1.2,3.3,2.7,3.3,4.5c0,2.6-1.8,3.9-5.4,3.9h-10.7c-3.9,0-6.8,0-8.8,0.1C140.4-3.7,128-3,112.4-1.8
		c-0.5,11.2-1.8,21.4-3.7,30.7c7.4-0.4,19.3-1.5,35.8-3.2c2.1-0.2,3.6-0.9,4.6-1.9c1.3-1.3,2.3-2,3-2c1.8,0,4.2,1.5,7.4,4.5
		c2.9,2.9,4.3,5.2,4.3,6.8c0,1.2-0.9,2.4-2.7,3.7c-1.5,0.9-2.5,2.5-2.9,4.9c-2.8,23-6.7,39.3-11.6,49.1c-3.2,4.9-7.1,7.3-11.5,7.3
		c-2.6,0-3.9-1.2-3.9-3.7c0-1-0.7-2.7-2.1-5c-2.3-2.9-6.8-7.2-13.5-13l2.6-3.9c4.3,2.8,9,6,14,9.6c2.1,1.4,3.8,2.1,5.1,2.1
		c1,0,1.9-0.9,2.7-2.6c4.7-13.7,7.7-30.3,9-49.9c-17.7,0.8-31.6,1.7-41.6,2.6c-2.3,9.3-5.3,17.6-9.1,24.8
		C90.6,74.5,78,86.6,60.7,95.6L58.2,92c17.4-11.7,29.4-27.1,36-46.2C98.9,32,101.5,16.4,102.1-0.9z"/>
</g>
</svg>
