<?xml version="1.0" encoding="UTF-8"?>
<!-- Generator: Adobe Illustrator 19.0.0, SVG Export Plug-In . SVG Version: 6.00 Build 0)  -->
<svg version="1.1" id="圖層_1" xmlns="http://www.w3.org/2000/svg" xmlns:xlink="http://www.w3.org/1999/xlink" x="0px" y="0px" viewBox="45 -33.8 150 150" style="enable-background:new 45 -33.8 150 150;" xml:space="preserve">
<style type="text/css">
	.st0{enable-background:new    ;}
</style>
<g class="st0">
	<path d="M130,13.2c-6.7,19.3-15.3,35.6-25.7,48.9C92.9,76.8,78.5,88.9,61.3,98.5L58.8,95C75,84.4,88.7,70.8,99.9,54.2   c8.4-12.3,15.1-25.7,19.9-40.1c-7.8,0.7-15.6,1.5-23.4,2.6c-6.3,1.2-10.7,2.1-13.3,2.7c-3.5,0.9-6.2,1.9-8,2.9   c-0.5,0.3-1,0.5-1.5,0.8s-0.7,0.3-0.9,0.3c-0.6,0-1.5-1.5-2.9-4.5c-1.5-3.2-2.2-5.2-2.2-5.9c0-0.2,0.2-0.4,0.7-0.7   c0.5-0.2,1.2-0.5,2.1-0.7c2.1-0.5,4.4-1.7,7-3.4c2.5-1.7,4.7-4.6,6.5-8.5c2-4.8,3-8.6,3-11.3c0-2.7-2.4-5-7.2-7l1.3-3.7   c11.7,1.6,17.6,5.1,17.6,10.5c0,1.3-0.5,3.2-1.5,5.8c-2.9,7-7,13-12.5,18.1C111.3,9.6,135,7.2,156,4.7c2.1-0.2,3.6-0.9,4.6-1.9   c1.3-1.3,2.3-2,3-2c1.8,0,4.2,1.5,7.4,4.5c2.9,2.9,4.3,5.2,4.3,6.8c0,1.2-0.9,2.4-2.7,3.7c-1.5,0.9-2.5,2.5-2.9,4.9   c-4.7,33.2-11.6,56.6-20.8,70.2c-3.2,4.9-6.6,7.3-10,7.3c-2.6,0-3.9-1.2-3.9-3.7c0-1-0.7-2.7-2.1-5c-1.8-2.9-6.1-7.2-12.7-13   l2.6-3.9c3.9,2.8,8.5,6,14,9.6c2.1,1.4,3.8,2.1,5.1,2.1c1,0,1.9-0.9,2.7-2.6c9.6-16.9,15.4-40.6,17.5-70.9   C151.8,11.5,141.2,12.3,130,13.2z"/>
</g>
</svg>