<?xml version="1.0" encoding="utf-8"?>
<!-- Generator: Adobe Illustrator 19.0.0, SVG Export Plug-In . SVG Version: 6.00 Build 0)  -->
<svg version="1.1" id="圖層_1" xmlns="http://www.w3.org/2000/svg" xmlns:xlink="http://www.w3.org/1999/xlink" x="0px" y="0px"
	 viewBox="45 -33.8 150 150" style="enable-background:new 45 -33.8 150 150;" xml:space="preserve">
<style type="text/css">
	.st0{enable-background:new    ;}
</style>
<g class="st0">
	<path d="M125.5,39.6c10.6-16,18.2-30.7,22.7-43.9c-31.1,3-50.9,5.3-59.6,6.9c-1.8,0.3-3.2,0.8-4.2,1.4c-0.8,0.5-1.7,0.7-2.7,0.7
		c-4.8,0-9.7-4.3-14.6-12.9l3.1-2.6c4,3.8,8.3,5.7,13,5.7c7.3,0,27-1.6,58.9-4.8c3.8-0.4,6.5-1.4,8.1-2.9c1.2-1.2,2.1-1.8,2.9-1.8
		c1.2,0,3.2,1.3,6.1,3.9c3,2.8,4.5,4.9,4.5,6.3c0,1.3-1.1,2.5-3.3,3.4c-1.6,0.8-3.4,3.3-5.4,7.5c-7.2,15.2-14.6,28-22.3,38.2
		c7.5,5.3,16.5,12.6,27,21.9c12.5,11.5,18.8,19.5,18.8,24.2c0,4.3-1.8,6.4-5.3,6.4c-1.6,0-3.8-1.8-6.4-5.5
		c-9.7-12.5-23-25.7-39.8-39.6c-15,18.2-34.4,31.8-58.3,40.6l-1.8-3.9c21.6-10.4,39.5-24.5,53.6-42.2C105.9,35,90.7,24.9,74.7,16.5
		l2-3.7C93.6,19.1,109.8,28,125.5,39.6z"/>
</g>
</svg>
