<?xml version="1.0" encoding="utf-8"?>
<!-- Generator: Adobe Illustrator 19.0.0, SVG Export Plug-In . SVG Version: 6.00 Build 0)  -->
<svg version="1.1" id="圖層_1" xmlns="http://www.w3.org/2000/svg" xmlns:xlink="http://www.w3.org/1999/xlink" x="0px" y="0px"
	 viewBox="45 -33.8 150 150" style="enable-background:new 45 -33.8 150 150;" xml:space="preserve">
<style type="text/css">
	.st0{enable-background:new    ;}
</style>
<g class="st0">
	<path d="M79,74.5c-6.6,12.5-13.8,21.1-21.7,25.7l-2.6-3.6c6.1-5.9,11.8-15,17-27.3c5.9-14.3,9.5-33.1,10.8-56.5v-1.7
		c-0.1-2.7-2.6-5-7.4-7l1.2-3.7c7.6,1,12.8,2.9,15.5,5.5c10.9-1.1,21.5-2.2,31.6-3.3l0.7-8c0-3.8-0.5-6.5-1.5-8.2
		c-1.3-2.1-3.6-3.6-6.9-4.6l1.2-4c5.4,0.3,9.8,1.5,13.2,3.5c2.7,1.7,4,3.4,4,5.3c0,0.9-0.2,2.3-0.6,4c-0.3,1.7-0.8,5.3-1.4,10.8
		c6.3-0.7,11.1-1.2,14.4-1.5c4.8-0.5,8.2-1.2,10-2.1c1.7-1,3.9-1.5,6.6-1.5c3.1,0,5.8,0.6,8.1,1.9c2.2,1.2,3.3,2.7,3.3,4.5
		c0,2.6-1.8,3.9-5.4,3.9h-10.7c-3.9,0-6.8,0-8.8,0.1c-10.8,0.4-22.8,1.3-36.1,2.9c-3.3,0.4-9.8,1.1-19.5,2.2
		c-0.3,2.8-1.4,9.9-3.3,21.1C88.3,49.8,84.4,63.6,79,74.5z"/>
</g>
</svg>
