<?xml version="1.0" encoding="UTF-8"?>
<!-- Generator: Adobe Illustrator 19.0.0, SVG Export Plug-In . SVG Version: 6.00 Build 0)  -->
<svg version="1.1" id="圖層_1" xmlns="http://www.w3.org/2000/svg" xmlns:xlink="http://www.w3.org/1999/xlink" x="0px" y="0px" viewBox="45 -33.8 150 150" style="enable-background:new 45 -33.8 150 150;" xml:space="preserve">
<style type="text/css">
	.st0{enable-background:new    ;}
</style>
<g class="st0">
	<path d="M76.4,35.4c15.4-9.9,33.2-24.5,53.2-43.9c1.2-1.4,1.8-3,1.8-5c0-1.4-2-3.2-5.9-5.5l2.3-3.1c10.9,4.1,16.3,8.2,16.3,12.4   c0,1.5-1.9,3.7-5.6,6.4c-22.8,18.4-40,31.6-51.7,39.5c24,14.2,41.1,26.6,51.1,37.3c7.6,8.1,11.4,14.2,11.4,18.2   c0,4.6-1.8,6.9-5.3,6.9c-1.6,0-3.8-2-6.4-5.9c-7.4-11.5-15.8-21.6-25-30.5C104.7,54.5,92.6,45.6,76.4,35.4z"/>
</g>
</svg>