<?xml version="1.0" encoding="utf-8"?>
<!-- Generator: Adobe Illustrator 19.0.0, SVG Export Plug-In . SVG Version: 6.00 Build 0)  -->
<svg version="1.1" id="圖層_1" xmlns="http://www.w3.org/2000/svg" xmlns:xlink="http://www.w3.org/1999/xlink" x="0px" y="0px"
	 viewBox="45 -33.8 150 150" style="enable-background:new 45 -33.8 150 150;" xml:space="preserve">
<style type="text/css">
	.st0{enable-background:new    ;}
</style>
<g class="st0">
	<path d="M79.1,72.8c9.5-19.2,17.6-37.4,24.5-54.5c5.5-14,8.3-22.4,8.3-25c0-3.4-2.1-6.2-6.3-8.4l2.4-3.9
		c11.4,4.2,17.1,8.3,17.1,12.5c0,1.5-0.8,3.5-2.3,6.2c-1.6,3.1-3.9,7.8-6.7,13.9l-3.1,6.6c-8.8,18-18.3,36.5-28.5,55.5
		c15.7-2.1,39.4-6.3,71-12.5c-4.3-8.6-10.9-17.9-19.8-27.9l3.4-2.9c10.2,8.1,18.6,17.1,25,27c6.3,9.5,9.4,17,9.4,22.6
		c0,5.4-2,8.1-5.9,8.1c-2.4,0-4.1-1.6-4.8-4.7c-1.7-7.6-3.5-13.5-5.3-17.7c-19.9,5.2-42.8,10.7-68.8,16.5c-2.4,0.6-4.9,1.2-7.4,2
		c-2.4,0.7-4.6,1.5-6.4,2.5c-0.5,0.3-1,0.5-1.5,0.8c-0.4,0.2-0.7,0.3-0.9,0.3c-0.6,0-1.5-1.5-2.9-4.5c-1.5-3.2-2.2-5.2-2.2-5.9
		c0-0.2,0.2-0.4,0.7-0.7c0.5-0.2,1.2-0.5,2.1-0.7c2.1-0.5,4-1.3,5.7-2.2C77.2,75.3,78.2,74.3,79.1,72.8z"/>
</g>
</svg>
