<?xml version="1.0" encoding="UTF-8"?>
<!-- Generator: Adobe Illustrator 19.0.0, SVG Export Plug-In . SVG Version: 6.00 Build 0)  -->
<svg version="1.1" id="圖層_1" xmlns="http://www.w3.org/2000/svg" xmlns:xlink="http://www.w3.org/1999/xlink" x="0px" y="0px" viewBox="45 -33.8 150 150" style="enable-background:new 45 -33.8 150 150;" xml:space="preserve">
<style type="text/css">
	.st0{enable-background:new    ;}
</style>
<g class="st0">
	<path d="M91.8-5.2C102.7-6.2,110-7,113.6-7.3c16-1.9,27-3.1,33-3.6c4.8-0.5,8.2-1.2,10-2.1c1.7-1,3.9-1.5,6.6-1.5   c3.1,0,5.8,0.6,8.1,1.9c2.2,1.2,3.3,2.7,3.3,4.5c0,2.6-1.8,3.9-5.4,3.9h-10.7c-3.9,0-6.8,0-8.8,0.1c-10.8,0.4-22.8,1.3-36.1,2.9   c-3.3,0.4-9.8,1.1-19.5,2.2c-0.2,2.3-0.8,7.5-1.6,15.4C89.8,42.1,85.2,61.5,79,74.5c-6.6,12.5-13.8,21.1-21.7,25.7l-2.6-3.6   c6.1-5.9,11.8-15,17-27.3c5.9-14.7,9.5-36.9,10.8-66.5c0-1,0-1.9,0-2.7c-0.1-2.7-2.6-5-7.4-7l1.2-3.7C83.9-9.6,89.1-7.8,91.8-5.2z"/>
</g>
</svg>