<?xml version="1.0" encoding="utf-8"?>
<!-- Generator: Adobe Illustrator 19.0.0, SVG Export Plug-In . SVG Version: 6.00 Build 0)  -->
<svg version="1.1" id="圖層_1" xmlns="http://www.w3.org/2000/svg" xmlns:xlink="http://www.w3.org/1999/xlink" x="0px" y="0px"
	 viewBox="45 -33.8 150 150" style="enable-background:new 45 -33.8 150 150;" xml:space="preserve">
<style type="text/css">
	.st0{enable-background:new    ;}
</style>
<g class="st0">
	<path d="M121.5,42.5C106.7,30.4,91.1,20,74.7,11.3l2-3.7c17.2,6.4,33.8,15.7,49.8,27.7c5.1-8,9.5-16.4,13.2-25.3
		c2.8-6.8,4.2-11.4,4.2-13.9c0-2.5-2.7-5.2-8.1-8.1l1.6-3.9c5.9,1.3,10.7,3.1,14.6,5.4c3.4,2,5.1,3.9,5.1,5.6c0,1.3-0.4,2.6-1.2,3.7
		c-0.7,1-1.6,2.8-2.6,5.4c-5.3,13.3-11.7,25.4-19.3,36.3c7.1,5.1,15.6,12.1,25.6,20.9C172.2,73,178.4,81,178.4,85.7
		c0,4.3-1.8,6.4-5.3,6.4c-1.6,0-3.8-1.8-6.4-5.5c-9.4-12.1-22.2-24.9-38.3-38.4c-14.6,18.6-33,33.3-55.1,44.1l-2.3-3.7
		c16.2-9.7,30.4-21.7,42.6-36C116.4,49.4,119,46,121.5,42.5z"/>
</g>
</svg>
