<?xml version="1.0" encoding="utf-8"?>
<!-- Generator: Adobe Illustrator 19.0.0, SVG Export Plug-In . SVG Version: 6.00 Build 0)  -->
<svg version="1.1" id="圖層_1" xmlns="http://www.w3.org/2000/svg" xmlns:xlink="http://www.w3.org/1999/xlink" x="0px" y="0px"
	 viewBox="45 -33.8 150 150" style="enable-background:new 45 -33.8 150 150;" xml:space="preserve">
<style type="text/css">
	.st0{enable-background:new    ;}
</style>
<g class="st0">
	<path d="M82.3,92.3c-0.3,5-2.4,7.5-6.3,7.5c-3.1,0-4.6-2.2-4.6-6.6c0-1.5,0.1-4,0.4-7.7c0.7-16.4,1-35.6,1-57.7v-9.8h-0.1v-7.3
		c0-2.1,0-4-0.1-5.8c-0.2-5.1-1-8.3-2.3-9.7c-1.8-2-4.1-3.7-7-5.1l1.5-4c4.1,0.7,7.8,1.9,11,3.5c2.6,1.4,4.4,2.8,5.3,4.2
		c11.1-0.5,23.3-1.3,36.5-2.3c12-0.6,26.3-1.7,42.8-3.2l5.6-6.2c6.3,4.6,9.4,7.7,9.4,9.2c0,1-0.5,1.8-1.5,2.6l-3.7,3
		c0,23.2-0.1,45.6-0.1,67.2c0,7.8,0.5,14.4,1.6,19.8c0.3,1.7,0.4,3.2,0.4,4.6c0,3.3-1,6.2-2.9,8.9c-1.3,1.8-2.6,2.7-3.9,2.7
		c-2.9,0-4.4-3.5-4.5-10.5c-1.9,0-3.8-0.1-5.8-0.1C141.8,89.5,117.4,90.4,82.3,92.3z M161.5,80.8c0.1-7.5,0.3-36.4,0.4-86.6
		C143-4.3,128.3-3,117.5-1.9v0.1c-10.8,0.7-22.8,1.6-36,2.6c-0.1,3.8-0.3,7.4-0.4,10.8v14.6c0,9.6,0.1,18.3,0.3,26.1
		c0.4,13.3,0.7,24,0.8,32.2c6.8-0.2,13.5-0.4,20.1-0.6c12-0.4,29-1.1,51.2-2.3C156.7,81.4,159.4,81.1,161.5,80.8z M102.9,22.8
		c12.3,3.8,21.4,8.1,27.3,12.8c5,4,7.5,8,7.5,12.1c0,4.5-1.6,6.7-4.7,6.7c-1.7,0-3.7-1.8-6.1-5.4c-5.8-8.5-14.4-16.1-25.9-22.6
		L102.9,22.8z"/>
</g>
</svg>
