<?xml version="1.0" encoding="UTF-8"?>
<!-- Generator: Adobe Illustrator 19.0.0, SVG Export Plug-In . SVG Version: 6.00 Build 0)  -->
<svg version="1.1" id="圖層_1" xmlns="http://www.w3.org/2000/svg" xmlns:xlink="http://www.w3.org/1999/xlink" x="0px" y="0px" viewBox="45 -33.8 150 150" style="enable-background:new 45 -33.8 150 150;" xml:space="preserve">
<style type="text/css">
	.st0{enable-background:new    ;}
</style>
<g class="st0">
	<path d="M119,26.5c7.2-1.3,19.5-3,37-5c2.1-0.2,3.6-0.9,4.6-1.9c1.3-1.3,2.3-2,3-2c1.8,0,4.2,1.5,7.4,4.5c2.9,2.9,4.3,5.2,4.3,6.8   c0,1.2-0.9,2.4-2.7,3.7c-1.5,0.9-2.5,2.5-2.9,4.9c-4.7,22-11.6,39.7-20.8,53.3c-3.2,4.9-6.6,7.3-10,7.3c-2.6,0-3.9-1.2-3.9-3.7   c0-1-0.7-2.7-2.1-5c-1.8-2.9-6.1-7.2-12.7-13l2.6-3.9c3.9,2.8,8.5,6,14,9.6c2.1,1.4,3.8,2.1,5.1,2.1c1,0,1.9-0.9,2.7-2.6   c9.6-16.9,15.4-35,17.5-54.1c-14.5,0.4-27.4,1.8-39,4.1c-4.1,0.9-7.1,1.9-8.9,2.9c-0.5,0.3-1,0.5-1.5,0.8s-0.7,0.3-0.9,0.3   c-0.6,0-1.5-1.5-2.9-4.5c-1.5-3.2-2.2-5.2-2.2-5.9c0-0.2,0.2-0.4,0.7-0.7c0.5-0.2,1.2-0.5,2.1-0.7c2.1-0.5,4.3-1.7,6.7-3.4   c6.8-8.2,12.2-16.5,16.1-24.8c-10.1,0.9-25.5,2.8-46.2,5.7c-2.6,0.2-5.1,0.7-7.5,1.4c-0.9,0.3-1.7,0.4-2.4,0.4   c-4.1,0-9.2-4.2-15.5-12.5l3.4-2.6c3.6,2.6,6.9,4.3,9.7,5.1c1.9,0.5,4.4,0.8,7.4,0.8c2.1,0,4.1-0.1,6.1-0.4   c12.7-1.2,25.5-2.4,38.3-3.6c3.4-0.2,6.1-1,8-2.6c1-0.8,2.1-1.2,3.1-1.2c1.4,0,3.1,1,5.3,3.1c3.4,3.2,5.1,5.8,5.1,7.8   c0,0.9-0.8,1.8-2.3,2.7c-2.7,1.9-4.9,4-6.7,6.3C132.5,12.8,126.1,19.6,119,26.5z"/>
</g>
</svg>