<?xml version="1.0" encoding="utf-8"?>
<!-- Generator: Adobe Illustrator 19.0.0, SVG Export Plug-In . SVG Version: 6.00 Build 0)  -->
<svg version="1.1" id="圖層_1" xmlns="http://www.w3.org/2000/svg" xmlns:xlink="http://www.w3.org/1999/xlink" x="0px" y="0px"
	 viewBox="45 -33.8 150 150" style="enable-background:new 45 -33.8 150 150;" xml:space="preserve">
<style type="text/css">
	.st0{enable-background:new    ;}
</style>
<g class="st0">
	<path d="M118.5-2.2c-4.3,0.3-8.9,0.6-13.7,1c-9.5,1-17.6,2-24.3,3.1c-1.6,0.3-2.9,0.7-3.7,1.1c-1.3,0.5-2.5,0.7-3.6,0.7
		c-4.2,0-8.7-4.1-13.5-12.3l3.3-2.6c4.3,3.8,8.2,5.7,11.8,5.7c5.4,0,15.4-0.7,30-2c21.9-1.9,35.8-3.1,41.7-3.6
		c4.8-0.5,8.2-1.2,10-2.1c1.7-1,3.9-1.5,6.6-1.5c3.1,0,5.8,0.6,8.1,1.9c2.2,1.2,3.3,2.7,3.3,4.5c0,2.6-1.8,3.9-5.4,3.9h-10.7
		c-3.9,0-6.8,0-8.8,0.1c-5.5,0.2-12,0.5-19.7,1c0.5,0.3,1,0.6,1.4,0.9c2.7,1.9,4.1,3.8,4.1,5.7c0,1.3-0.3,2.5-0.8,3.7
		c-0.7,1.3-1.3,2.7-1.8,4.2c-3.6,9.6-6.7,17-9.2,22.3c10.7-1.2,21.4-2.4,32.2-3.4c2.1-0.3,3.6-1,4.6-2.1c1.3-1.2,2.3-1.8,3-1.8
		c1.8,0,4.2,1.5,7.4,4.5c2.9,2.9,4.3,5.2,4.3,6.8c0,1.2-0.7,2.4-2.1,3.7c-1.5,0.9-2.7,2.5-3.4,4.9c-7.3,22-18.8,39.3-34.5,51.9
		l-4.1-2.6c16-15.8,26.2-35.5,30.8-59.1c-13.9,0.7-27.7,1.8-41.3,3.1c-4,7.2-9,14.7-14.9,22.6c-11,14.6-24.9,26.8-41.7,36.3L61.8,95
		c15.6-10.6,28.8-24.3,39.8-40.9c3.2-4.9,6-9.4,8.4-13.5c-7.9,0.9-15.4,1.9-22.3,2.9c-3.5,0.6-5.9,1.1-7.4,1.5
		c-3.5,0.9-6.2,1.9-8,2.9c-0.5,0.3-1,0.5-1.5,0.8S70,49,69.9,49c-0.6,0-1.5-1.5-2.9-4.5c-1.5-3.2-2.2-5.2-2.2-5.9
		c0-0.2,0.2-0.4,0.7-0.7c0.5-0.2,1.2-0.5,2.1-0.7c2.1-0.5,4.1-1.5,5.9-2.8c2.9-2.3,5.6-5.4,8.1-9.1c2.3-4.1,3.4-7.7,3.4-10.8
		c-0.3-2.7-2.3-4.7-6.1-5.9l1.3-3.7c10,0.4,15.1,3.3,15.5,8.5c0,1.3-0.7,3.5-2,6.7C91.3,25.9,87,32.1,81,38.7
		c10.7-1.3,21.4-2.6,32.2-3.8c2.7-5.2,5.6-11.8,8.6-19.8c1.2-4.1,1.8-7.5,1.8-10.2C123.6,2.3,121.9-0.1,118.5-2.2z"/>
</g>
</svg>
