<svg xmlns="http://www.w3.org/2000/svg" height="640" width="640" version="1.1">
	<g transform="translate(0 -412.36)">
		<g>
			<path d="m243.54 447.14-5.8594 7.6172q-1.7578 4.1016 2.3438 15.234 2.9297 7.6172 8.7891 16.406 4.6875 8.7891 9.9609 16.406 3.5156 5.8594 4.6875 9.375 24.609 49.805 34.57 101.37l6.4453 18.164 3.5156 29.883q2.3438 9.9609 4.6875 19.922 1.7578 9.9609 1.7578 21.094-21.094 0-43.945 1.1719-24.609 1.7578-42.773 5.8594-46.289 11.133-67.969 44.531-4.6875 7.0312-8.7891 24.609-2.9297 12.891-6.4453 26.953-2.9297 12.891-3.5156 27.539v25.195q0.58594 14.648 11.133 25.195 18.164 0 21.68-11.133v-72.07q1.7578-9.9609 5.2734-16.992 5.2734-8.2031 8.7891-16.406l4.1016-7.0312q12.891-12.891 39.258-21.68 19.922-6.4453 44.531-8.2031h41.016v113.67l-2.3438 2.3438h-18.75q-11.719 1.7578-24.609 2.9297-15.82 2.9297-25.195 6.4453-26.367 8.2031-39.258 29.883-5.2734 8.7891-8.7891 27.539l-4.6875 19.336q0 18.75 14.648 38.086 13.477 17.578 31.055 27.539l17.578 11.133q6.4453 4.1015 19.336 6.4453 11.133 2.3437 21.094 2.9297 8.7891 1.1718 16.992 2.3437 9.375 2.3438 17.578 1.1719l21.094-4.6875q22.852-1.7578 43.359-11.719 18.164-9.375 28.711-17.578 14.062-12.891 20.508-28.125l1.1719-11.133 2.9297-12.891-6.4453-29.883q-1.7578-4.1016-6.4453-9.9609-5.8594-5.8594-8.7891-9.375-1.1719-1.1719-2.3438-2.9297-16.992-20.508-29.297-26.367-18.75-9.375-32.227-9.9609-15.234 0-17.578-4.6875v-108.98q8.2031-4.1016 24.609-2.9297 2.9297 0 12.305 2.9297 6.4453 2.3438 11.719 3.5156l13.477 1.1719 19.336 8.7891q19.336 11.719 29.297 38.086 7.0312 19.336 9.375 49.219v38.086q2.9297 6.4453 8.7891 11.719 8.2031 5.8594 13.477 4.1016 8.2031-4.6875 9.9609-18.164 0.58594-4.6875 0-15.234 0-0.58594-1.7578-15.82-0.58594-1.7578-0.58594-4.6875-1.1719-14.648-4.1016-31.055-3.5156-17.578-8.2031-30.469-11.719-32.812-36.328-47.461-5.2734-4.1016-21.68-7.6172-1.7578-0.58593-4.1016-1.1719-7.0312-2.3438-15.234-5.8594-8.2031-2.3438-16.992-4.6875l-45.703-4.6875q0-14.648-2.9297-31.641-2.9297-15.234-6.4453-31.055-0.58594 0.58594-0.58594-4.6875-5.2734-27.539-12.305-55.078l-2.3438-15.234-12.305-25.195-13.477-35.156-18.75-28.711q-5.2734-12.891-14.648-24.023l-16.406-3.5156zm99.023 543.75q-9.375 2.3438-24.023 0.58594-4.1016 0-9.375-0.58594-34.57-4.1016-61.523-28.711-3.5156-2.9297-7.0312-6.4453-5.2734-5.2734-7.6172-8.2031-7.0312-10.547-7.0312-18.75 0-14.062 10.547-27.539 11.719-15.234 23.438-19.922 6.4453-1.7578 13.477-3.5156 5.2734-1.1719 7.6172-1.1719 4.1016-1.1719 7.0312-1.7578h62.109q8.7891 0.58594 18.75 6.4453 9.9609 3.5156 19.336 8.2031 16.992 10.547 25.781 28.125 8.7891 20.508 0.58594 37.5-6.4453 12.305-20.508 19.336-12.891 5.8594-26.367 9.375l-12.891 5.2734-12.305 1.7578z"/>
		</g>
	</g>
</svg>