<svg xmlns="http://www.w3.org/2000/svg" height="640" width="640" version="1.1">
	<g transform="translate(0 -412.36)">
		<g>
			<path d="m237.68 1030.7q-10.547-13.477 1.7578-33.398 12.305-19.336 20.508-32.812 19.336-38.672 35.742-93.164t17.578-98.438q-45.703-3.5156-89.062-8.7891-42.773-5.2734-74.414-45.703-13.477-19.922-16.992-47.461-3.5156-27.539-2.9297-50.977-0.58594-9.9609 2.3438-22.266t15.82-11.719q12.891 2.9297 14.648 11.719 1.7578 8.2031 1.1719 18.164-0.58594 18.164-1.1719 39.844 0 21.68 9.375 38.086 2.3438 5.2734 5.2734 11.133 3.5156 5.8594 7.6172 9.9609 24.023 21.094 61.523 25.195 37.5 4.1016 68.555 2.9297 2.9297-20.508 2.9297-58.594 0.58594-38.672-2.9297-58.008-26.953-2.3438-56.836-5.8594-29.883-4.1016-49.805-24.023-41.602-55.078-7.6172-97.266 33.984-42.188 93.164-50.391 8.7891-1.7578 18.164-2.9297 9.375-1.7578 18.164-1.1719 31.641 3.5156 63.867 14.062 32.812 10.547 51.562 38.086 25.195 47.461-9.9609 86.719-35.156 38.672-84.375 41.602-4.6875 7.6172-4.6875 15.82 0 8.2031 1.1719 16.406-1.1719 19.922-2.3438 42.188t3.5156 41.016q8.2031 2.9297 15.82 2.3438 8.2031-1.1719 16.992-2.3438 25.781-2.9297 48.633-13.477 23.438-11.133 33.984-37.5 7.6172-23.438 7.6172-50.977 0-28.125 4.1016-42.188 2.3438-7.6172 11.719-12.891 9.375-5.2734 15.82 2.3438 7.6172 12.891 5.8594 30.469t-4.6875 32.227q-1.7578 11.719-3.5156 23.438-1.7578 11.133-5.8594 22.852-14.062 36.328-39.844 50.977-25.195 14.062-62.109 21.68-11.719 2.9297-24.023 2.9297-11.719 0-23.438 2.3438-4.6875 34.57-9.9609 70.898-4.6875 35.742-17.578 67.969-5.2734 13.477-11.719 25.781-6.4453 12.305-11.719 25.781-4.6875 11.719-16.406 32.227-11.133 20.508-18.75 28.711-4.6875 4.6875-9.9609 5.2735-5.2734 1.1719-11.133 2.9297l-1.1719-1.7578zm48.04-435.32q29.297 0.58593 56.836-0.58594 28.125-1.1719 53.32-16.406 21.094-13.477 25.781-36.914 5.2734-23.438-14.062-41.016-14.062-11.719-34.57-17.578-20.508-6.4453-38.672-8.2031-27.539-2.9297-58.008 8.7891-29.883 11.133-46.875 33.984-13.477 21.68-4.1016 41.602 9.375 19.336 30.469 29.883 5.8594 2.3438 13.477 3.5156 8.2031 1.1719 15.234 1.7578l1.1719 1.1719z"/>
		</g>
	</g>
</svg>