<?xml version="1.0" encoding="UTF-8" standalone="no"?>
<svg t="1707801330596" class="icon" viewBox="0 0 409.6 374.61859" version="1.1" p-id="4549" width="200" height="182.91924" id="svg2" sodipodi:docname="Bilibili_2020_Favicon_Alte.svg" xml:space="preserve" inkscape:version="1.3.2 (091e20e, 2023-11-25, custom)" xmlns:inkscape="http://www.inkscape.org/namespaces/inkscape" xmlns:sodipodi="http://sodipodi.sourceforge.net/DTD/sodipodi-0.dtd" xmlns="http://www.w3.org/2000/svg" xmlns:svg="http://www.w3.org/2000/svg"><defs id="defs2"/><sodipodi:namedview id="namedview2" pagecolor="#ffffff" bordercolor="#000000" borderopacity="0.25" inkscape:showpageshadow="2" inkscape:pageopacity="0.0" inkscape:pagecheckerboard="0" inkscape:deskcolor="#d1d1d1" inkscape:zoom="2.7826489" inkscape:cx="99.904805" inkscape:cy="91.459615" inkscape:window-width="1366" inkscape:window-height="705" inkscape:window-x="-8" inkscape:window-y="-8" inkscape:window-maximized="1" inkscape:current-layer="svg2"/><path d="m 332.25116,7.7904646 c 9.99992,9.9999034 9.99992,26.2069054 0.008,36.2068094 l -0.008,0.0076 -23.4118,23.388958 h 23.96016 c 42.41392,0 76.80048,34.386568 76.80048,76.800478 V 297.8181 c 0,42.41392 -34.38656,76.80048 -76.80048,76.80048 H 76.800476 C 34.386568,374.6186 0,340.23204 0,297.81812 V 144.20956 C 0,101.79565 34.386568,67.40908 76.800476,67.40908 H 100.68448 L 77.31837,44.020122 C 67.143296,34.203004 66.861502,17.996002 76.678618,7.820929 86.495736,-2.3541444 102.70274,-2.6359392 112.87781,7.1811784 c 0.21325,0.205634 0.4265,0.418884 0.63214,0.6321344 l 54.31783,54.3178292 a 25.239664,25.239664 0 0 1 4.05175,5.262706 h 65.80287 a 25.34629,25.34629 0 0 1 4.0746,-5.285554 L 296.05198,7.7904646 c 9.98466,-9.9999036 26.19928,-9.9999036 36.19918,0 z M 332.80714,118.79472 H 76.800476 c -13.404288,-0.008 -24.538986,10.3274 -25.536692,23.69361 l -0.06093,1.92686 v 153.60095 c 0,13.49568 10.441636,24.55422 23.693602,25.52146 l 1.904018,0.0838 H 332.80714 c 13.40428,0.008 24.53898,-10.3274 25.5367,-23.6936 l 0.0609,-1.90402 V 144.41519 c 0,-14.12781 -11.4698,-25.59762 -25.59762,-25.59762 z m -204.80381,51.20286 c 14.12782,0 25.59762,11.4698 25.59762,25.59762 v 25.59762 c 0.008,14.13544 -11.45457,25.60524 -25.59,25.61286 -14.13543,0.008 -25.60524,-11.45458 -25.61285,-25.59002 V 195.5952 c 0,-14.12782 11.4698,-25.59762 25.60523,-25.59762 z m 153.60095,0 c 14.12782,0 25.59762,11.4698 25.59762,25.59762 v 25.59762 c 0,14.13544 -11.46218,25.59762 -25.59762,25.59762 -14.13542,0 -25.59762,-11.46218 -25.59762,-25.59762 V 195.5952 c -0.008,-14.12782 11.4622,-25.59762 25.59762,-25.59762 z" fill="#FFFFFF" p-id="4551" id="path2" style="fill:#009fd5;fill-opacity:1;stroke-width:0.761608"/></svg>